<?xml version="1.0" standalone="no"?>
<!DOCTYPE svg PUBLIC "-//W3C//DTD SVG 1.1//EN" "http://www.w3.org/Graphics/SVG/1.1/DTD/svg11.dtd" >
<svg>
<metadata>
Created by FontForge 20090914 at Wed Mar 16 16:48:38 2016
 By www-data
Copyright (c) 2002, 2005 Parachute&#194;&#168;, www.parachute.gr.  All rights reserved.
</metadata>
<defs>
<font id="PFDinDisplayPro-Light" horiz-adv-x="997" >
  <font-face 
    font-family="PF DinDisplay Pro Light"
    font-weight="300"
    font-stretch="normal"
    units-per-em="2048"
    panose-1="2 0 5 6 0 0 0 2 0 4"
    ascent="1536"
    descent="-512"
    x-height="1010"
    cap-height="1411"
    bbox="-39 -428.001 2001 1804"
    underline-thickness="102"
    underline-position="-613"
    unicode-range="U+0020-U+25FC"
  />
<missing-glyph horiz-adv-x="748" 
d="M68 0v1365h544v-1365h-544zM136 68h408v1229h-408v-1229z" />
    <glyph glyph-name=".notdef" horiz-adv-x="748" 
d="M68 0v1365h544v-1365h-544zM136 68h408v1229h-408v-1229z" />
    <glyph glyph-name="space" unicode=" " horiz-adv-x="456" 
 />
    <glyph glyph-name="exclam" unicode="!" horiz-adv-x="458" 
d="M131 92c0 23.333 8.16699 44.833 24.5 64.5s40.166 29.5 71.499 29.5s56.333 -9.83301 75 -29.5s28 -41.167 28 -64.5c0 -28.667 -9.33301 -52.167 -28 -70.5s-43.667 -27.5 -75 -27.5s-55.166 8.83301 -71.499 26.5s-24.5 41.5 -24.5 71.5zM158 1425h141l-14 -1077h-115
c-1.33301 174.667 -3 354.167 -5 538.5s-4.33301 363.833 -7 538.5z" />
    <glyph glyph-name="quotedbl" unicode="&#x22;" horiz-adv-x="565" 
d="M115 1053v372h110v-372h-110zM338 1053v372h108v-372h-108z" />
    <glyph glyph-name="numbersign" unicode="#" horiz-adv-x="1042" 
d="M43 446v103h205l45 334h-193v102h209l62 438h106l-57 -438h264l61 438h109l-59 -438h198v-102h-213l-47 -334h203v-103h-215l-62 -446h-114l63 446h-262l-61 -446h-115l63 446h-190zM360 549h263l45 334h-262z" />
    <glyph glyph-name="dollar" unicode="$" 
d="M49 145l74.0029 105.003c57.333 -39.333 118.333 -71 183 -95s131.334 -36 200.001 -36c95.333 0 171 22.5 227 67.5s84 109.167 84 192.5c0 49.333 -9.83301 89.666 -29.5 120.999s-45.167 56.833 -76.5 76.5s-66.833 34.667 -106.5 45s-78.834 19.5 -117.501 27.5
c-49.333 9.33301 -98.166 22.666 -146.499 39.999s-91.5 40.333 -129.5 69s-69 64.834 -93 108.501s-36 97.5 -36 161.5c0 53.333 9.16699 102.166 27.5 146.499s43.5 83.166 75.5 116.499s70.333 60.333 115 81s93.334 33 146.001 37v172h99v-84
c0 -28.667 -0.666992 -57.334 -2 -86.001c61.333 -2.66699 121.666 -11.5 180.999 -26.5s117 -38.833 173 -71.5l-61 -117c-52 30 -106.333 52.833 -163 68.5s-114.334 23.5 -173.001 23.5c-36.667 0 -71.834 -5.5 -105.501 -16.5s-63.834 -27 -90.501 -48
s-47.834 -48.167 -63.501 -81.5s-23.5 -72.666 -23.5 -117.999c0 -44 9.83301 -80 29.5 -108s45 -51.167 76 -69.5s64.833 -33 101.5 -44s72.667 -20.5 108 -28.5c56 -12 109.333 -26.5 160 -43.5s95.5 -40 134.5 -69s69.667 -66 92 -111s33.5 -102.167 33.5 -171.5
c0 -57.333 -9.83301 -108.833 -29.5 -154.5s-47.334 -85 -83.001 -118s-78.667 -59 -129 -78s-106.166 -29.833 -167.499 -32.5l2 -195h-99v195c-74 4 -143.667 18 -209 42s-128 59.667 -188 107z" />
    <glyph glyph-name="percent" unicode="%" horiz-adv-x="1597" 
d="M94 791l-0.00292969 397c0 34 7.5 65.333 22.5 94s35.5 53.167 61.5 73.5s56 36 90 47s70.333 16.5 109 16.5c38 0 74.167 -5.5 108.5 -16.5s64.333 -26.667 90 -47s45.667 -44.833 60 -73.5s21.5 -60 21.5 -94v-397c0 -35.333 -7.16699 -67.5 -21.5 -96.5
s-34 -53.667 -59 -74s-54.667 -36 -89 -47s-71.166 -16.5 -110.499 -16.5c-40.667 0 -78.167 5.5 -112.5 16.5s-64.166 26.667 -89.499 47s-45.166 44.833 -59.499 73.5s-21.5 61 -21.5 97zM210.997 805c0 -27.333 5.5 -49.833 16.5 -67.5s24.667 -32.334 41 -44.001
s34 -19.834 53 -24.501s37.5 -7 55.5 -7s36.833 2.33301 56.5 7s37.667 12.834 54 24.501s30 26.334 41 44.001s16.5 40.167 16.5 67.5v366c0 26 -5.5 48.333 -16.5 67s-24.667 33.667 -41 45s-34.5 19.5 -54.5 24.5s-38.667 7.5 -56 7.5c-18 0 -36.5 -2.5 -55.5 -7.5
s-36.667 -13.167 -53 -24.5s-30 -26.333 -41 -45s-16.5 -41 -16.5 -67v-366zM308.997 -35l869 1495h110l-870 -1495h-109zM937.997 225l-0.00292969 398c0 34 7.5 65.333 22.5 94s35.5 53.167 61.5 73.5s56 36.333 90 48s70.333 17.5 109 17.5c38 0 74 -5.83301 108 -17.5
s64 -27.667 90 -48s46.167 -44.833 60.5 -73.5s21.5 -60 21.5 -94v-400c0 -35.333 -7.16699 -67 -21.5 -95s-34.166 -52.167 -59.499 -72.5s-55 -36 -89 -47s-70.667 -16.5 -110 -16.5c-40.667 0 -78.167 5.5 -112.5 16.5s-64.166 26.667 -89.499 47
s-45.166 44.833 -59.499 73.5s-21.5 60.667 -21.5 96zM1054.99 238c0 -27.333 5.33301 -50 16 -68s24.334 -32.667 41.001 -44s34.5 -19.5 53.5 -24.5s37.5 -7.5 55.5 -7.5s36.833 2.5 56.5 7.5s37.667 13.167 54 24.5s30 26 41 44s16.5 40.667 16.5 68v366
c0 27.333 -5.5 50.166 -16.5 68.499s-24.667 33.333 -41 45s-34.5 20 -54.5 25s-38.667 7.5 -56 7.5c-18 0 -36.5 -2.5 -55.5 -7.5s-36.833 -13.333 -53.5 -25s-30.334 -26.667 -41.001 -45s-16 -41.166 -16 -68.499v-366z" />
    <glyph glyph-name="ampersand" unicode="&#x26;" horiz-adv-x="1660" 
d="M90 1026c0 79.333 16.334 155.834 49.001 229.501s79.5 138.5 140.5 194.5s133.833 100.667 218.5 134s178.667 50 282 50c120 0 226.167 -20.833 318.5 -62.5s169.5 -98 231.5 -169s109.167 -153.833 141.5 -248.5s48.5 -195.334 48.5 -302.001
c0 -128.667 -26.667 -246.834 -80 -354.501s-121.666 -200.5 -204.999 -278.5c52 -49.333 104.167 -92.666 156.5 -129.999s106.5 -67.666 162.5 -90.999l-53 -100c-62.667 27.333 -125.334 63.166 -188.001 107.499s-118.667 90.166 -168 137.499
c-65.333 -50.667 -138 -89.5 -218 -116.5s-158.333 -40.5 -235 -40.5c-60 0 -116.333 8.16699 -169 24.5s-98.667 41.166 -138 74.499s-70.333 74.666 -93 123.999s-34 106.666 -34 171.999c0 96.667 31.333 180.834 94 252.501s147.334 136.834 254.001 195.501
c-42 57.333 -72 108.333 -90 153s-27 87.334 -27 128.001s6.5 78.834 19.5 114.501s31.5 66.834 55.5 93.501s53.5 47.834 88.5 63.501s74.167 23.5 117.5 23.5c42 0 80.833 -7.16699 116.5 -21.5s66.167 -33.833 91.5 -58.5s45.166 -53 59.499 -85s21.5 -66.333 21.5 -103
c0 -76.667 -25.333 -142.667 -76 -198s-119 -107 -205 -155c50.667 -76.667 109.5 -157.834 176.5 -243.501s135.167 -167.5 204.5 -245.5c74 70.667 134.167 153.5 180.5 248.5s69.5 197.833 69.5 308.5c0 90 -13.333 176 -40 258s-66.334 154 -119.001 216
s-117.5 111.167 -194.5 147.5s-166.833 54.5 -269.5 54.5c-87.333 0 -166.833 -13.333 -238.5 -40s-133 -62.5 -184 -107.5s-90.833 -97.5 -119.5 -157.5s-43 -123 -43 -189c0 -48 7.5 -96.167 22.5 -144.5s38.833 -96.5 71.5 -144.5l-94 -59
c-38 54.667 -66 110.667 -84 168s-27 114.666 -27 171.999zM375.001 385.001c0 -49.333 8.1709 -92.332 24.5039 -128.999s38.166 -67.334 65.499 -92.001s59.666 -43.167 96.999 -55.5s76.666 -18.5 117.999 -18.5c61.333 0 125.5 10.833 192.5 32.5
s132.5 55.167 196.5 100.5c-36.667 39.333 -73.5 81 -110.5 125s-72.167 87.833 -105.5 131.5l-96 130l-85 123.5c-40.667 -22 -79.167 -45.167 -115.5 -69.5s-67.833 -50.833 -94.5 -79.5s-47.834 -59.5 -63.501 -92.5s-23.5 -68.5 -23.5 -106.5zM612.005 1118
c0 -35.333 9.66992 -72.168 29.0029 -110.501s44.666 -79.166 75.999 -122.499c30 16.667 58.667 33.5 86 50.5s51.166 35.667 71.499 56s36.333 42.5 48 66.5s17.5 50.333 17.5 79c0 46.667 -17 84.5 -51 113.5s-73.667 43.5 -119 43.5
c-28.667 0 -52.834 -5.66699 -72.501 -17s-36 -26 -49 -44s-22.333 -37.167 -28 -57.5s-8.5 -39.5 -8.5 -57.5z" />
    <glyph glyph-name="quotesingle" unicode="'" horiz-adv-x="479" 
d="M193 1053v372h108v-372h-108z" />
    <glyph glyph-name="parenleft" unicode="(" horiz-adv-x="565" 
d="M119 621c0 83.333 9.16895 164.826 27.502 244.493s43.5 156.334 75.5 230.001s69.5 143.334 112.5 209.001s89.167 125.834 138.5 180.501l70 -43c-42 -57.333 -80.167 -119.166 -114.5 -185.499s-63.833 -134.333 -88.5 -204s-43.5 -140 -56.5 -211
s-19.5 -141.167 -19.5 -210.5c0 -75.333 6.83301 -150.166 20.5 -224.499s32.834 -147 57.501 -218s53.667 -139 87 -204s70.666 -125.5 111.999 -181.5l-62 -49c-48 54.667 -93.833 114.834 -137.5 180.501s-81.834 135.334 -114.501 209.001s-58.834 150.5 -78.501 230.5
s-29.5 162.333 -29.5 247z" />
    <glyph glyph-name="parenright" unicode=")" horiz-adv-x="565" 
d="M47 -199c82 113.333 149.001 241.667 201.001 385s78 291 78 443c0 69.333 -6.5 139.833 -19.5 211.5s-31.833 142.334 -56.5 212.001s-54 137.334 -88 203.001s-72.333 127.167 -115 184.5l70 43c49.333 -54.667 95.333 -114.834 138 -180.501
s80.167 -135.334 112.5 -209.001s57.666 -150.5 75.999 -230.5s27.5 -161.667 27.5 -245s-9.83301 -165.166 -29.5 -245.499s-46 -157.333 -79 -231s-71 -143.334 -114 -209.001s-88.167 -125.167 -135.5 -178.5z" />
    <glyph glyph-name="asterisk" unicode="*" horiz-adv-x="720" 
d="M59 1167c5.33301 15.333 10.834 33.167 16.501 53.5l16.5 57.5l234 -98l-19 250h115l-19 -250c12 5.33301 28.667 12.333 50 21l67 27.5l68 28c22 9 39 16.167 51 21.5l33 -113l-242 -65l164 -191l-47 -36.5l-47 -34.5l-135 217l-29 -46l-39.5 -63l-37.5 -62.5l-28 -47.5
l-94 73l160 191c-12 2.66699 -29 7 -51 13s-44.667 12.833 -68 20.5s-45.833 14.5 -67.5 20.5s-38.834 10.333 -51.501 13z" />
    <glyph glyph-name="plus" unicode="+" 
d="M59 537v104h387v391h105v-391h385v-104h-385v-396h-105v396h-387z" />
    <glyph glyph-name="comma" unicode="," horiz-adv-x="460" 
d="M119 -176c30 22 53.166 45.832 69.499 71.499s25.833 56.5 28.5 92.5c-27.333 1.33301 -49.166 11.5 -65.499 30.5s-24.5 42.167 -24.5 69.5c0 26 9.5 48.5 28.5 67.5s44.167 28.5 75.5 28.5c39.333 0 68.333 -14 87 -42s28 -59.667 28 -95
c0 -31.333 -4.83301 -61.666 -14.5 -90.999s-22.667 -56.333 -39 -81s-35.333 -46.5 -57 -65.5s-44.167 -34.167 -67.5 -45.5z" />
    <glyph glyph-name="hyphen" unicode="-" horiz-adv-x="780" 
d="M106 485v123h568v-123h-568z" />
    <glyph glyph-name="period" unicode="." horiz-adv-x="417" 
d="M111 94c0 23.333 8.83496 45.166 26.502 65.499s42.167 30.5 73.5 30.5s56.166 -10.167 74.499 -30.5s27.5 -42.166 27.5 -65.499c0 -28.667 -8.83301 -53.167 -26.5 -73.5s-42.834 -30.5 -75.501 -30.5c-31.333 0 -55.833 9.5 -73.5 28.5s-26.5 44.167 -26.5 75.5z" />
    <glyph glyph-name="slash" unicode="/" horiz-adv-x="622" 
d="M0 -70l510 1549h106l-507 -1549h-109z" />
    <glyph glyph-name="zero" unicode="0" 
d="M80 352l-0.000976562 704.999c0 56 12 106.5 36 151.5s55.333 83.5 94 115.5s83.334 56.833 134.001 74.5s102.667 26.5 156 26.5c54.667 0 107.167 -8.83301 157.5 -26.5s95 -42.5 134 -74.5s70.167 -70.5 93.5 -115.5s35 -95.5 35 -151.5v-705
c0 -56 -11.667 -106.167 -35 -150.5s-54.5 -82.166 -93.5 -113.499s-83.667 -55.5 -134 -72.5s-102.833 -25.5 -157.5 -25.5c-56 0 -109.333 8.5 -160 25.5s-95 41.5 -133 73.5s-68.667 70.167 -92 114.5s-35 93.833 -35 148.5zM216.999 386.999
c0 -50.667 9.16699 -93.334 27.5 -128.001s41.166 -62.667 68.499 -84s57.833 -36.666 91.5 -45.999s65.5 -14 95.5 -14s61.667 4.66699 95 14s63.666 24.666 90.999 45.999s50.166 49.333 68.499 84s27.5 77.334 27.5 128.001v635c0 50.667 -9.16699 93.334 -27.5 128.001
s-41.166 63 -68.499 85s-57.666 37.667 -90.999 47s-65 14 -95 14s-61.833 -4.66699 -95.5 -14s-64.167 -25 -91.5 -47s-50.166 -50.333 -68.499 -85s-27.5 -77.334 -27.5 -128.001v-635z" />
    <glyph glyph-name="one" unicode="1" 
d="M242 1174l64.5 53l82.5 66.5l83 65.5l65 52h131v-1411h-138v1245l-45.5 -35.5l-61.5 -49l-62.5 -50.5l-45.5 -37z" />
    <glyph glyph-name="two" unicode="2" 
d="M82 0l0.00195312 143.003c0 61.333 10.5 117.666 31.5 168.999s49.333 99.166 85 143.499s76.667 85 123 122s94.166 71.833 143.499 104.5c40.667 26 79.834 53.333 117.501 82s70.5 58.667 98.5 90s50.5 63.666 67.5 96.999s25.5 68 25.5 104
c0 42 -8.5 78.333 -25.5 109s-39.5 55.667 -67.5 75s-59.833 33.666 -95.5 42.999s-71.834 14 -108.501 14c-62.667 0 -119.667 -10.5 -171 -31.5s-96 -46.5 -134 -76.5l-36.5 51.5l-37.5 50.5c44 35.333 98 66.666 162 93.999s135 41 213 41c56 0 110.667 -6.5 164 -19.5
s100.5 -34.167 141.5 -63.5s74 -66.833 99 -112.5s37.5 -101.167 37.5 -166.5c0 -49.333 -10.833 -96.166 -32.5 -140.499s-49.167 -86.333 -82.5 -126s-70.833 -76.167 -112.5 -109.5s-82.5 -63 -122.5 -89l-106.5 -75c-39.667 -28 -76.834 -59.333 -111.501 -94
s-64 -73.167 -88 -115.5s-36 -88.166 -36 -137.499v-55h688v-121h-829z" />
    <glyph glyph-name="three" unicode="3" 
d="M51 123c10.667 16.667 23.6719 34.8379 39.0049 54.5049l39 51.5c39.333 -31.333 85.666 -58.5 138.999 -81.5s108 -34.5 164 -34.5c91.333 0 165.333 24.833 222 74.5s85 117.5 85 203.5c0 42 -6.83301 80.5 -20.5 115.5s-31.667 64.833 -54 89.5s-48.5 43.5 -78.5 56.5
s-61.333 19.5 -94 19.5h-158v123h160c24.667 0 50.834 5.33301 78.501 16s53.5 26.667 77.5 48s43.5 48.666 58.5 81.999s22.5 72.666 22.5 117.999c0 44 -7.83301 80.833 -23.5 110.5s-36.5 54.167 -62.5 73.5s-55.333 33 -88 41s-65.334 12 -98.001 12
c-54.667 0 -110.334 -11.167 -167.001 -33.5s-103.334 -49.166 -140.001 -80.499c-10.667 15.333 -23.667 32.833 -39 52.5l-39 51.5c49.333 40.667 106.333 73.667 171 99s138 38 220 38c49.333 0 98.166 -6.5 146.499 -19.5s91.666 -33.833 129.999 -62.5
s69.333 -65.5 93 -110.5s35.5 -100.167 35.5 -165.5c0 -35.333 -4.33301 -69.5 -13 -102.5s-21.5 -63.833 -38.5 -92.5s-38.833 -53.834 -65.5 -75.501s-57 -38.834 -91 -51.501c36.667 -13.333 68.667 -32 96 -56s49.5 -51.333 66.5 -82s30 -63.334 39 -98.001
s13.5 -69.334 13.5 -104.001c0 -68 -11.667 -128 -35 -180s-54.833 -95.333 -94.5 -130s-86.167 -61.167 -139.5 -79.5s-109.333 -27.5 -168 -27.5c-86 0 -161.667 14 -227 42s-119.333 59.667 -162 95z" />
    <glyph glyph-name="four" unicode="4" 
d="M53 223v121l239 533.5l236 533.5h146l-471 -1063h475v432h139v-432h123v-125h-123v-223h-139v223h-625z" />
    <glyph glyph-name="five" unicode="5" 
d="M96 129l80 107.001c42 -38 87.333 -67.667 136 -89s101.667 -32 159 -32c23.333 0 52 3.66699 86 11s66.333 20.666 97 39.999s57 46 79 80s33 77.667 33 131v192c0 78 -18.833 136.167 -56.5 174.5s-87.834 57.5 -150.501 57.5c-24.667 0 -51.667 -4.16699 -81 -12.5
s-58.666 -19 -87.999 -32s-57.666 -27.333 -84.999 -43s-50.333 -30.167 -69 -43.5l-132 51v690h760v-127h-620v-465c61.333 38 121 67.333 179 88s107.333 31 148 31c104 0 185.333 -31.667 244 -95s88 -148.333 88 -255v-234c0 -54.667 -11.167 -104.5 -33.5 -149.5
s-53 -83.167 -92 -114.5s-84.833 -55.833 -137.5 -73.5s-108.334 -26.5 -167.001 -26.5c-87.333 0 -161 13.667 -221 41s-112 60 -156 98z" />
    <glyph glyph-name="six" unicode="6" 
d="M88 354l0.00195312 701.002c0 57.333 11.333 108.833 34 154.5s53 84.5 91 116.5s82.333 56.5 133 73.5s104.667 25.5 162 25.5c86 0 159 -13.667 219 -41s110.667 -60 152 -98l-82 -108c-39.333 38 -82.333 66.833 -129 86.5s-99.334 29.5 -158.001 29.5
c-28.667 0 -59.667 -4.66699 -93 -14s-64 -25 -92 -47s-51.667 -50.333 -71 -85s-29 -77.334 -29 -128.001v-270c75.333 46.667 143 80.167 203 100.5s112 30.5 156 30.5c102.667 0 182.5 -32.167 239.5 -96.5s85.5 -149.833 85.5 -256.5v-166
c0 -57.333 -10.833 -108.833 -32.5 -154.5s-51.334 -84.5 -89.001 -116.5s-81.667 -56.833 -132 -74.5s-103.5 -26.5 -159.5 -26.5c-57.333 0 -111 8.16699 -161 24.5s-93 40.166 -129 71.499s-64.667 69.5 -86 114.5s-32 96.167 -32 153.5zM225.002 387.002
c0 -49.333 8.49805 -91 25.498 -125s38.833 -62 65.5 -84s55.834 -38 87.501 -48s62.5 -15 92.5 -15s61 5 93 15s61.667 26 89 48s49.833 50.333 67.5 85s26.5 76 26.5 124v125c0 80.667 -19.167 139.667 -57.5 177s-87.5 56 -147.5 56c-52 0 -106.667 -12.5 -164 -37.5
s-116.666 -56.833 -177.999 -95.5v-225z" />
    <glyph glyph-name="seven" unicode="7" 
d="M88 1069v342h819v-125l-526 -1286h-148l523 1286h-537v-217h-131z" />
    <glyph glyph-name="eight" unicode="8" 
d="M61 381c0 34 5.16699 68.1641 15.5 102.497s25.166 66.833 44.499 97.5s43.333 58.167 72 82.5s60.667 43.5 96 57.5c-32.667 12 -61.334 28.667 -86.001 50s-45.167 45.666 -61.5 72.999s-28.666 57 -36.999 89s-12.5 65 -12.5 99c0 64 11.667 120.333 35 169
s53.666 89.334 90.999 122.001s80.333 57.5 129 74.5s99 25.5 151 25.5s102.5 -8.5 151.5 -25.5s92.667 -41.833 131 -74.5s69 -73.334 92 -122.001s34.5 -104.334 34.5 -167.001c0 -65.333 -16.667 -127 -50 -185s-83.333 -100.667 -150 -128
c42 -15.333 77.333 -35.166 106 -59.499s51.834 -51.166 69.501 -80.499s30.334 -60.5 38.001 -93.5s11.5 -64.5 11.5 -94.5c0 -68 -12.667 -127.667 -38 -179s-58.5 -93.666 -99.5 -126.999s-87.833 -58.166 -140.5 -74.499s-106 -24.5 -160 -24.5
c-58.667 0 -114 7.83301 -166 23.5s-97.833 39.834 -137.5 72.501s-71.167 73.667 -94.5 123s-35 107.333 -35 174zM203 382.997c0 -82 26.1689 -147.167 78.502 -195.5s124.5 -72.5 216.5 -72.5c86 0 155.833 23.833 209.5 71.5s80.5 114.5 80.5 200.5
c0 39.333 -7.5 75.5 -22.5 108.5s-35.333 61 -61 84s-56.334 41 -92.001 54s-73.834 19.5 -114.501 19.5c-39.333 0 -76.833 -6.5 -112.5 -19.5s-67.167 -31.333 -94.5 -55s-48.833 -52 -64.5 -85s-23.5 -69.833 -23.5 -110.5zM225.002 1034
c0 -39.333 7.5 -74.665 22.5 -105.998s35.167 -58 60.5 -80s54.333 -39.167 87 -51.5s67 -18.5 103 -18.5c34 0 67.333 6.16699 100 18.5s61.667 29.833 87 52.5s45.833 49.667 61.5 81s23.5 66.666 23.5 105.999c0 42 -7.5 79.167 -22.5 111.5s-35.167 59.5 -60.5 81.5
s-54.333 38.333 -87 49s-66 16 -100 16s-67.5 -5.33301 -100.5 -16s-62.5 -27 -88.5 -49s-46.833 -49.333 -62.5 -82s-23.5 -70.334 -23.5 -113.001z" />
    <glyph glyph-name="nine" unicode="9" 
d="M76 893l-0.00390625 157.998c0 57.333 11.167 108.833 33.5 154.5s52.333 84.834 90 117.501s81.834 57.834 132.501 75.501s104 26.5 160 26.5c54.667 0 106.5 -8.5 155.5 -25.5s92.333 -41.167 130 -72.5s67.334 -69.5 89.001 -114.5s32.5 -95.5 32.5 -151.5v-703
c0 -57.333 -11.333 -108.5 -34 -153.5s-53 -83.5 -91 -115.5s-82.333 -56.5 -133 -73.5s-104.667 -25.5 -162 -25.5c-87.333 0 -161 13.667 -221 41s-109.667 60 -149 98l81 109c39.333 -38 82.333 -67 129 -87s98.667 -30 156 -30c28.667 0 59.334 4.83301 92.001 14.5
s63.334 25 92.001 46s52.334 48.833 71.001 83.5s28 78 28 130v275c-75.333 -45.333 -142.333 -78.5 -201 -99.5s-110 -31.5 -154 -31.5c-102.667 0 -182.834 31 -240.501 93s-86.5 149 -86.5 261zM212.996 906.998c0 -80.667 19.5 -139.667 58.5 -177s88.5 -56 148.5 -56
c52 0 106.333 13.333 163 40s115 57.667 175 93v221c0 49.333 -8.16699 91 -24.5 125s-37.5 61.667 -63.5 83s-54.667 37 -86 47s-62 15 -92 15s-61.5 -5 -94.5 -15s-63.167 -26 -90.5 -48s-49.833 -50 -67.5 -84s-26.5 -75 -26.5 -123v-121z" />
    <glyph glyph-name="colon" unicode=":" horiz-adv-x="460" 
d="M127 94c0 23.333 8.50098 45.166 25.501 65.499s41.167 30.5 72.5 30.5s56.666 -10.167 75.999 -30.5s29 -42.166 29 -65.499c0 -28.667 -9.33301 -53.167 -28 -73.5s-43.667 -30.5 -75 -30.5s-55.833 9.5 -73.5 28.5s-26.5 44.167 -26.5 75.5zM127.001 733
c0 24.667 8.50098 47.167 25.501 67.5s41.167 30.5 72.5 30.5s56.666 -10.167 75.999 -30.5s29 -42.833 29 -67.5c0 -28.667 -9.33301 -53.167 -28 -73.5s-43.667 -30.5 -75 -30.5s-55.833 9.5 -73.5 28.5s-26.5 44.167 -26.5 75.5z" />
    <glyph glyph-name="semicolon" unicode=";" horiz-adv-x="460" 
d="M111 -176c30 22 53.166 45.832 69.499 71.499s25.833 56.5 28.5 92.5c-27.333 1.33301 -49.166 11.5 -65.499 30.5s-24.5 42.167 -24.5 69.5c0 26 9.5 48.5 28.5 67.5s44.167 28.5 75.5 28.5c39.333 0 68.333 -14 87 -42s28 -59.667 28 -95
c0 -31.333 -4.83301 -61.666 -14.5 -90.999s-22.667 -56.333 -39 -81s-35.333 -46.5 -57 -65.5s-44.167 -34.167 -67.5 -45.5zM126.999 732.999c0 24.667 8.50098 47.167 25.501 67.5s41.167 30.5 72.5 30.5s56.666 -10.167 75.999 -30.5s29 -42.833 29 -67.5
c0 -28.667 -9.33301 -53.167 -28 -73.5s-43.667 -30.5 -75 -30.5s-55.833 9.5 -73.5 28.5s-26.5 44.167 -26.5 75.5z" />
    <glyph glyph-name="less" unicode="&#x3c;" 
d="M84 541l0.00195312 97.998l827 393v-114l-698 -328c13.333 -5.33301 38.166 -16.666 74.499 -33.999l125 -59.5l149.5 -71.5l149.5 -70.5l125 -58.5c36.333 -17.333 61.166 -28.666 74.499 -33.999v-117z" />
    <glyph glyph-name="equal" unicode="=" 
d="M59 336v108h877v-108h-877zM59 715v106h877v-106h-877z" />
    <glyph glyph-name="greater" unicode="&#x3e;" 
d="M84 145l0.00195312 117c13.333 5.33301 38.166 16.666 74.499 33.999l124 58.5l149.5 70.5l149.5 71.5l124 58.5c36.333 16.667 61.166 28.334 74.499 35.001l-696 328v114l827 -393v-98z" />
    <glyph glyph-name="question" unicode="?" horiz-adv-x="913" 
d="M61 1321c58.667 39.333 117.5 67.666 176.5 84.999s121.833 26 188.5 26c56 0 107.167 -9 153.5 -27s86.333 -42.333 120 -73s59.667 -67.167 78 -109.5s27.5 -88.166 27.5 -137.499c0 -60 -15.333 -115.833 -46 -167.5s-64.5 -101.834 -101.5 -150.501
s-70.833 -97.167 -101.5 -145.5s-46 -99.166 -46 -152.499v-111h-131v109c0 48 6.83301 91 20.5 129s30.667 73.833 51 107.5s42.833 65.5 67.5 95.5s47.167 59.667 67.5 89s37.333 59 51 89s20.5 62.667 20.5 98c0 65.333 -22.167 120 -66.5 164s-104.5 66 -180.5 66
c-52 0 -102.667 -8.33301 -152 -25s-92.333 -38.667 -129 -66zM352 92c0 23.333 8.16699 45.166 24.5 65.499s40.5 30.5 72.5 30.5c31.333 0 56.166 -10.167 74.499 -30.5s27.5 -42.166 27.5 -65.499c0 -27.333 -8.83301 -50.833 -26.5 -70.5s-42.167 -29.5 -73.5 -29.5
s-55.666 9.5 -72.999 28.5s-26 42.833 -26 71.5z" />
    <glyph glyph-name="at" unicode="@" horiz-adv-x="1708" 
d="M98 705c0 109.333 21.4932 210 64.4932 302s101.5 171.833 175.5 239.5s160 120.167 258 157.5s202.333 56 313 56c114.667 0 216.834 -18.333 306.501 -55s165.5 -87.5 227.5 -152.5s109.333 -140.5 142 -226.5s49 -178 49 -276c0 -74 -9.83301 -138.333 -29.5 -193
s-45.5 -99.667 -77.5 -135s-67.833 -61.666 -107.5 -78.999s-79.5 -26 -119.5 -26c-44 0 -87.333 9.33301 -130 28s-72.334 48.334 -89.001 89.001c-54.667 -31.333 -107.167 -56.166 -157.5 -74.499s-98.166 -27.5 -143.499 -27.5c-74 0 -134.167 20.5 -180.5 61.5
s-69.5 98.167 -69.5 171.5c0 44 9.33301 81 28 111s42 54.167 70 72.5s58 31.666 90 39.999s61.667 12.5 89 12.5h252v57c0 35.333 -5.16699 64.666 -15.5 87.999s-24.666 41.5 -42.999 54.5s-40.5 22.167 -66.5 27.5s-54 8 -84 8c-26 0 -56.667 -4.33301 -92 -13
s-75 -28.667 -119 -60l-64 84c49.333 36.667 97.666 61.834 144.999 75.501s92 20.5 134 20.5c210 0 315 -92.333 315 -277v-338c1.33301 -27.333 13.333 -52.833 36 -76.5s57.334 -35.5 104.001 -35.5c27.333 0 54.333 7.16699 81 21.5s50.167 35.5 70.5 63.5
s37 62.833 50 104.5s19.5 90.5 19.5 146.5c0 86 -14.333 166.167 -43 240.5s-70 138.5 -124 192.5s-119.167 96.667 -195.5 128s-162.5 47 -258.5 47c-96.667 0 -187.667 -16.667 -273 -50s-160.166 -79.166 -224.499 -137.499s-115.166 -127.333 -152.499 -207
s-56 -165.834 -56 -258.501c0 -94 16.333 -181 49 -261s78.334 -149.333 137.001 -208s128.334 -104.5 209.001 -137.5s168.667 -49.5 264 -49.5c40.667 0 81.167 3.5 121.5 10.5s87.166 21.167 140.499 42.5l37 -96c-61.333 -24.667 -117.666 -40.334 -168.999 -47.001
s-94.666 -10 -129.999 -10c-110.667 0 -212.667 18.667 -306 56s-173.833 89.5 -241.5 156.5s-120.667 146.667 -159 239s-57.5 193.166 -57.5 302.499zM646.993 567c0 -45.333 14.666 -79.167 43.999 -101.5s66 -33.5 110 -33.5c40.667 0 84.167 10.667 130.5 32
s88.833 44 127.5 68v170h-225c-19.333 0 -40 -1.33301 -62 -4s-42.167 -8.66699 -60.5 -18s-33.666 -23 -45.999 -41s-18.5 -42 -18.5 -72z" />
    <glyph glyph-name="A" unicode="A" horiz-adv-x="1193" 
d="M33 0l244.5 705.5l244.5 705.5h152l491 -1411h-155l-55.5 164l-55.5 164h-604l-111 -328h-151zM342 459l512 -0.000976562c-12 40.667 -29.667 95.834 -53 165.501l-74 218l-74 218c-23.333 69.667 -41 124.5 -53 164.5h-6l-52 -164l-72 -218.5l-73 -218z" />
    <glyph glyph-name="B" unicode="B" horiz-adv-x="1196" 
d="M117 0l0.000976562 1411h571c65.333 0 122.666 -9.83301 171.999 -29.5s90.333 -46.334 123 -80.001s57.5 -72.334 74.5 -116.001s25.5 -89.834 25.5 -138.501c0 -28.667 -3.33301 -57.834 -10 -87.501s-17.5 -57.667 -32.5 -84s-35.167 -51.166 -60.5 -74.499
s-57 -43.333 -95 -60c39.333 -16.667 73 -37.5 101 -62.5s50.833 -52.833 68.5 -83.5s30.667 -63.167 39 -97.5s12.5 -67.166 12.5 -98.499c0 -50.667 -8.5 -99.834 -25.5 -147.501s-42.333 -90.167 -76 -127.5s-75 -67.333 -124 -90s-105.5 -34 -169.5 -34h-594z
M260.001 129.003l421.999 -0.000976562c86 0 154.333 22.833 205 68.5s76 112.834 76 201.501c0 42 -8 80.167 -24 114.5s-36.833 63.5 -62.5 87.5s-55.667 42.5 -90 55.5s-69.166 19.5 -104.499 19.5h-422v-547zM260 807.002l418 0.000976562
c32.667 0 64.667 5.16699 96 15.5s59.333 25 84 44s44.167 43.167 58.5 72.5s21.5 63.666 21.5 102.999c0 42 -7.5 78.5 -22.5 109.5s-35.167 55.667 -60.5 74s-55 32 -89 41s-70.333 13.5 -109 13.5h-397v-473z" />
    <glyph glyph-name="C" unicode="C" horiz-adv-x="1054" 
d="M109 453l-0.000976562 510.002c0 69.333 12.833 132.333 38.5 189s61.167 105.5 106.5 146.5s98.333 72.333 159 94s126.334 32.5 197.001 32.5c150 0 277 -38.667 381 -116l-73 -113c-40.667 31.333 -88.167 55.166 -142.5 71.499s-109.5 24.5 -165.5 24.5
c-45.333 0 -89 -6.83301 -131 -20.5s-80.167 -34.834 -114.5 -63.501s-61.666 -65.834 -81.999 -111.501s-30.5 -100.5 -30.5 -164.5v-451c0 -64 10.5 -118.833 31.5 -164.5s48.333 -83.167 82 -112.5s71.667 -51.166 114 -65.499s84.5 -21.5 126.5 -21.5
c57.333 0 113.333 7.83301 168 23.5s104 41.167 148 76.5l71 -111c-39.333 -31.333 -92.5 -59.166 -159.5 -83.499s-141.5 -36.5 -223.5 -36.5c-72.667 0 -139.334 10.833 -200.001 32.5s-113.5 53 -158.5 94s-80 90.167 -105 147.5s-37.5 121.666 -37.5 192.999z" />
    <glyph glyph-name="D" unicode="D" horiz-adv-x="1214" 
d="M117 0l-0.000976562 1411h526c69.333 0 132.833 -10.833 190.5 -32.5s106.834 -52.334 147.501 -92.001s72.667 -88.167 96 -145.5s35 -121 35 -191v-491c0 -68 -12 -130.5 -36 -187.5s-56.833 -105.5 -98.5 -145.5s-91.5 -71 -149.5 -93s-121 -33 -189 -33h-522z
M259.999 127.001h344.003c42 0 84.667 6.16699 128 18.5s82 32.833 116 61.5s62 65.5 84 110.5s33 100.167 33 165.5v441c0 65.333 -10.333 120.5 -31 165.5s-47.334 81.5 -80.001 109.5s-69.834 48.5 -111.501 61.5s-83.834 19.5 -126.501 19.5h-356v-1153z" />
    <glyph glyph-name="E" unicode="E" horiz-adv-x="1116" 
d="M121 0v1411h926v-131h-783v-504h672v-131h-672v-516h783v-129h-926z" />
    <glyph glyph-name="F" unicode="F" horiz-adv-x="1077" 
d="M121 0v1411h926v-131h-783v-504h672v-131h-672v-645h-143z" />
    <glyph glyph-name="G" unicode="G" horiz-adv-x="1157" 
d="M104 453l-0.000976562 510.002c0 69.333 13.333 132.333 40 189s63.334 105.5 110.001 146.5s101.667 72.333 165 94s132 32.5 206 32.5s143 -9.5 207 -28.5s122 -48.167 174 -87.5l-74 -113c-39.333 31.333 -86.666 55.166 -141.999 71.499s-110.333 24.5 -165 24.5
c-48 0 -94.167 -6.83301 -138.5 -20.5s-84.333 -34.834 -120 -63.501s-64 -65.834 -85 -111.501s-31.5 -100.5 -31.5 -164.5v-451c0 -64 10.167 -118.833 30.5 -164.5s47.333 -83.167 81 -112.5s72.334 -51.166 116.001 -65.499s88.5 -21.5 134.5 -21.5
c32.667 0 75.667 5.5 129 16.5s108.666 38.833 165.999 83.5v373h-235v133h379v-563c-58.667 -61.333 -126.334 -105.666 -203.001 -132.999s-154.667 -41 -234 -41c-72.667 0 -140 10.833 -202 32.5s-115.833 53 -161.5 94s-81.5 90.167 -107.5 147.5
s-39 121.666 -39 192.999z" />
    <glyph glyph-name="H" unicode="H" horiz-adv-x="1243" 
d="M111 0v1411h143v-629h729v629h150v-1411h-150v651h-729v-651h-143z" />
    <glyph glyph-name="I" unicode="I" horiz-adv-x="479" 
d="M168 0v1411h143v-1411h-143z" />
    <glyph glyph-name="J" unicode="J" horiz-adv-x="1050" 
d="M41 84l70 115.001c91.333 -54.667 180.666 -82 267.999 -82c52 0 99.833 7.16699 143.5 21.5s81.5 36.166 113.5 65.499s56.833 67.5 74.5 114.5s26.5 103.167 26.5 168.5v924h144v-954c0 -70.667 -11.667 -135.167 -35 -193.5s-56.5 -108 -99.5 -149
s-94.167 -72.667 -153.5 -95s-124.666 -33.5 -195.999 -33.5c-64 0 -128 8.5 -192 25.5s-118.667 41.167 -164 72.5z" />
    <glyph glyph-name="K" unicode="K" horiz-adv-x="1138" 
d="M115 0v1411h143v-803h8l652 803h174l-53 -65.5l-79.5 -97l-91.5 -113l-91 -112.5l-78.5 -97l-53.5 -66l502 -860h-168c-12 22 -29.667 52.5 -53 91.5l-76 130l-87 149.5l-87 149.5l-75 130l-52 90.5l-291 -352v-389h-143z" />
    <glyph glyph-name="L" unicode="L" horiz-adv-x="1062" 
d="M127 0v1411h143v-1282h779v-129h-922z" />
    <glyph glyph-name="M" unicode="M" horiz-adv-x="1484" 
d="M115 0v1411h139l491 -1014h9l481 1014h133v-1411h-143v1071h-6l-414 -854h-113l-418 840h-8l-8 -1057h-143z" />
    <glyph glyph-name="N" unicode="N" horiz-adv-x="1288" 
d="M117 0l0.000976562 1411h139l83 -125l133 -200.5l159 -238.5l159.5 -239.5l136 -204c40.333 -60.333 70.166 -103.5 89.499 -129.5h10v1137h143v-1411h-143c-12 19.333 -31 48 -57 86l-89.5 134l-110.5 166l-121.5 182.5l-122 182.5l-112 164.5l-90 132l-57.5 82.5h-6
v-1130h-143z" />
    <glyph glyph-name="O" unicode="O" horiz-adv-x="1228" 
d="M106 459l0.000976562 493.001c0 69.333 12 133.166 36 191.499s58.167 108.333 102.5 150s98 74 161 97s132.5 34.5 208.5 34.5c75.333 0 144.333 -11.5 207 -34.5s116.667 -55.333 162 -97s80.166 -91.5 104.499 -149.5s36.5 -122 36.5 -192v-495
c0 -72.667 -12.5 -138 -37.5 -196s-60.167 -107.5 -105.5 -148.5s-99.333 -72.333 -162 -94s-131 -32.5 -205 -32.5c-76.667 0 -146 11.167 -208 33.5s-115.167 54 -159.5 95s-78.833 90.5 -103.5 148.5s-37 123.333 -37 196zM250.001 475.001
c0 -64 10.1709 -118.499 30.5039 -163.499s47.666 -81.833 81.999 -110.5s73.333 -49.834 117 -63.501s88.5 -20.5 134.5 -20.5c49.333 0 96.166 6.83301 140.499 20.5s83 35.167 116 64.5s59.333 66.5 79 111.5s29.5 98.833 29.5 161.5v457
c0 62.667 -9.83301 116.5 -29.5 161.5s-46.334 82.167 -80.001 111.5s-72.334 51.166 -116.001 65.499s-90.167 21.5 -139.5 21.5c-50.667 0 -98 -7.16699 -142 -21.5s-82.5 -36.166 -115.5 -65.499s-59 -66.5 -78 -111.5s-28.5 -98.833 -28.5 -161.5v-457z" />
    <glyph glyph-name="P" unicode="P" horiz-adv-x="1120" 
d="M111 0v1411h571c66.667 0 125 -12.333 175 -37s91.333 -56.334 124 -95.001s56.834 -83 72.501 -133s23.5 -99.667 23.5 -149s-8.83301 -98.5 -26.5 -147.5s-43.5 -93 -77.5 -132s-75.333 -70.667 -124 -95s-104.334 -36.5 -167.001 -36.5h-428v-586h-143zM254 721.001
l399.001 -0.000976562c38 0 74.167 6.5 108.5 19.5s64.166 31 89.499 54s45.166 51.5 59.499 85.5s21.5 73 21.5 117c0 42 -7.16699 80.5 -21.5 115.5s-34.166 64.833 -59.499 89.5s-55 43.834 -89 57.501s-70.333 20.5 -109 20.5h-399v-559z" />
    <glyph glyph-name="Q" unicode="Q" horiz-adv-x="1228" 
d="M106 459l-0.000976562 493.001c0 69.333 12 133.166 36 191.499s58.167 108.333 102.5 150s98 74 161 97s132.5 34.5 208.5 34.5c75.333 0 144.333 -11.5 207 -34.5s116.667 -55.333 162 -97s80.166 -91.5 104.499 -149.5s36.5 -122 36.5 -192v-495
c0 -65.333 -10.833 -125.333 -32.5 -180s-52 -102.167 -91 -142.5s-85.5 -73.166 -139.5 -98.499s-113.667 -40.666 -179 -45.999v-51c0 -69.333 15.333 -115.833 46 -139.5s73.334 -35.5 128.001 -35.5h20.5c7 0 13.833 1 20.5 3v-117
c-13.333 -2.66699 -26.166 -4 -38.499 -4h-35.5c-54.667 0 -99.667 7.16699 -135 21.5s-63.333 33.666 -84 57.999s-35 54 -43 89s-12 72.833 -12 113.5v62c-66.667 5.33301 -127.334 20.333 -182.001 45s-101.167 57.5 -139.5 98.5s-68.166 88.667 -89.499 143
s-32 115.166 -32 182.499zM249.999 475.001c0 -64 10.1709 -118.499 30.5039 -163.499s47.666 -81.833 81.999 -110.5s73.333 -49.834 117 -63.501s88.5 -20.5 134.5 -20.5c49.333 0 96.166 6.83301 140.499 20.5s83 35.167 116 64.5s59.333 66.5 79 111.5
s29.5 98.833 29.5 161.5v457c0 62.667 -9.83301 116.5 -29.5 161.5s-46.334 82.167 -80.001 111.5s-72.334 51.166 -116.001 65.499s-90.167 21.5 -139.5 21.5c-50.667 0 -98 -7.16699 -142 -21.5s-82.5 -36.166 -115.5 -65.499s-59 -66.5 -78 -111.5
s-28.5 -98.833 -28.5 -161.5v-457z" />
    <glyph glyph-name="R" unicode="R" horiz-adv-x="1155" 
d="M115 0v1411h569c69.333 0 129 -12.333 179 -37s91.333 -56.334 124 -95.001s56.834 -83 72.501 -133s23.5 -99.667 23.5 -149c0 -39.333 -5.66699 -78.833 -17 -118.5s-28.333 -76.5 -51 -110.5s-50.334 -64.667 -83.001 -92s-71 -48.666 -115 -63.999l270 -612h-159
l-250 586h-420v-586h-143zM258 719l399 0.000976562c39.333 0 76.5 6.5 111.5 19.5s65.167 31.333 90.5 55s45.166 52.667 59.499 87s21.5 73.166 21.5 116.499c0 42 -7.16699 80.5 -21.5 115.5s-34.166 64.833 -59.499 89.5s-55.333 43.5 -90 56.5s-72 19.5 -112 19.5h-399
v-559z" />
    <glyph glyph-name="S" unicode="S" horiz-adv-x="1118" 
d="M61 145l75.9971 106.998c62.667 -39.333 130.334 -71.666 203.001 -96.999s147 -38 223 -38c102.667 0 185.334 22.833 248.001 68.5s94 110.834 94 195.501c0 50.667 -10.833 91.667 -32.5 123s-50 56.833 -85 76.5s-74 35 -117 46s-85.5 20.5 -127.5 28.5
c-56 9.33301 -110.333 23 -163 41s-99.5 41.667 -140.5 71s-74.167 66.166 -99.5 110.499s-38 99.166 -38 164.499c0 57.333 10.333 110 31 158s50.5 89.333 89.5 124s86 61.667 141 81s117.5 29 187.5 29c78 0 154.5 -7.16699 229.5 -21.5s145.833 -41.5 212.5 -81.5
l-65 -123c-60 32.667 -122.833 56.667 -188.5 72s-130.5 23 -194.5 23c-39.333 0 -77.166 -5.16699 -113.499 -15.5s-68.5 -26.5 -96.5 -48.5s-50.167 -49.667 -66.5 -83s-24.5 -72.666 -24.5 -117.999c0 -44 10.833 -80.167 32.5 -108.5s49.667 -52.166 84 -71.499
s72 -34.333 113 -45s81.167 -20.334 120.5 -29.001c61.333 -13.333 120 -28.5 176 -45.5s104.833 -40.167 146.5 -69.5s75.167 -67 100.5 -113s38 -104.333 38 -175c0 -61.333 -12 -116.333 -36 -165s-57.5 -89.667 -100.5 -123s-94.833 -59.166 -155.5 -77.499
s-128 -27.5 -202 -27.5c-94 0 -181.667 13 -263 39s-160.333 65.333 -237 118z" />
    <glyph glyph-name="T" unicode="T" horiz-adv-x="1060" 
d="M33 1278v133h993v-133h-422v-1278h-145v1278h-426z" />
    <glyph glyph-name="U" unicode="U" horiz-adv-x="1228" 
d="M106 449l0.00195312 962h146v-936c0 -64 9.83301 -118.5 29.5 -163.5s46.667 -81.833 81 -110.5s73.333 -49.834 117 -63.501s89.167 -20.5 136.5 -20.5c46.667 0 92.167 6.83301 136.5 20.5s83.333 34.834 117 63.501s60.667 65.5 81 110.5s30.5 99.5 30.5 163.5v936
h145v-965c0 -70.667 -12.833 -134.334 -38.5 -191.001s-61.834 -105.167 -108.501 -145.5s-101 -71 -163 -92s-128.667 -31.5 -200 -31.5c-72.667 0 -139.834 10.5 -201.501 31.5s-115.5 51.667 -161.5 92s-82 88.833 -108 145.5s-39 121.334 -39 194.001z" />
    <glyph glyph-name="V" unicode="V" horiz-adv-x="1136" 
d="M27 1411h157l105.5 -334l105.5 -334l168 -526h10l83 271.5l83 271.5l209 651h156l-230.5 -705.5l-228.5 -705.5h-160z" />
    <glyph glyph-name="W" unicode="W" horiz-adv-x="1740" 
d="M20 1411h156.001l299 -1198h6l307 1198h152l53.5 -205.5l61.5 -242l81 -317.5l111 -433h6c5.33301 23.333 15.666 65 30.999 125l52.5 208l63.5 251l64.5 255l54 218c15.667 64 27.5 111 35.5 141h154l-375 -1411h-166l-32.5 123l-51 197.5l-61.5 236.5l-63.5 240.5
l-55 208c-16.333 61.667 -28.833 107.5 -37.5 137.5h-8l-35.5 -140.5l-53.5 -209l-62.5 -240.5l-61.5 -236.5l-51.5 -196.5c-15 -56.667 -25.833 -96.667 -32.5 -120h-166z" />
    <glyph glyph-name="X" unicode="X" horiz-adv-x="1077" 
d="M20 0l437 723l-408 688h168l322 -565l321 565h166l-408 -688l439 -723h-168l-350 602l-351 -602h-168z" />
    <glyph glyph-name="Y" unicode="Y" horiz-adv-x="1052" 
d="M25 1411h157l33 -68.5l57.5 -123l70.5 -151.5l74 -155.5l65.5 -136l45.5 -92.5c6.66699 15.333 19 42 37 80l62 131l72.5 156l71.5 154.5l60.5 129l36.5 76.5h154l-424 -872v-539h-145v535l-213 438z" />
    <glyph glyph-name="Z" unicode="Z" horiz-adv-x="1064" 
d="M78 0v127l739 1153h-708v131h880v-125l-741 -1157h739v-129h-909z" />
    <glyph glyph-name="bracketleft" unicode="[" horiz-adv-x="507" 
d="M152 -219v1649h319v-95h-197v-1462h197v-92h-319z" />
    <glyph glyph-name="backslash" unicode="\" horiz-adv-x="624" 
d="M-4 1485h102l516 -1571h-104z" />
    <glyph glyph-name="bracketright" unicode="]" horiz-adv-x="507" 
d="M63 -127h195v1462h-195v95h318v-1649h-318v92z" />
    <glyph glyph-name="asciicircum" unicode="^" horiz-adv-x="991" 
d="M70 676l383 745h98l381 -743h-115l-317 625c-5.33301 -12 -16 -34.167 -32 -66.5l-56.5 -112l-68.5 -134l-68.5 -134l-56 -113l-32.5 -67.5h-116z" />
    <glyph glyph-name="underscore" unicode="_" horiz-adv-x="1017" 
d="M0 -141h1018v-101h-1018v101z" />
    <glyph glyph-name="grave" unicode="`" 
d="M410 1468l133 45l153 -339l-84 -33z" />
    <glyph glyph-name="a" unicode="a" horiz-adv-x="985" 
d="M72 285c0 54.667 11.834 100.669 35.501 138.002s53.334 67.666 89.001 90.999s74 40.166 115 50.499s79.167 15.5 114.5 15.5h330v90c0 79.333 -21.5 137.333 -64.5 174s-106.833 55 -191.5 55c-42 0 -88.333 -5.83301 -139 -17.5s-102 -37.167 -154 -76.5l-68 102
c61.333 45.333 123.166 75.833 185.499 91.5s124.166 23.5 185.499 23.5c135.333 0 232.333 -30 291 -90s88 -146 88 -258v-674h-115l-18 109l-4 2c-88.667 -52 -161 -85.167 -217 -99.5s-104 -21.5 -144 -21.5c-95.333 0 -172.333 25.5 -231 76.5s-88 123.833 -88 218.5z
M211.001 285.002c0 -60 19.835 -104 59.502 -132s88.167 -42 145.5 -42c27.333 0 56 4 86 12s60 18.167 90 30.5s59 26 87 41s53.667 29.5 77 43.5v229h-299c-24.667 0 -51.334 -1.66699 -80.001 -5s-55.334 -11.5 -80.001 -24.5s-45.167 -31.5 -61.5 -55.5
s-24.5 -56.333 -24.5 -97z" />
    <glyph glyph-name="b" unicode="b" horiz-adv-x="1005" 
d="M100 0l-0.00195312 1466h136v-577c49.333 28.667 92 51.834 128 69.501s67.667 31.334 95 41.001s51.5 15.834 72.5 18.501s41.167 4 60.5 4c106.667 0 187.167 -30 241.5 -90s81.5 -148 81.5 -264v-326c0 -57.333 -8.16699 -107.833 -24.5 -151.5
s-39.166 -80.5 -68.499 -110.5s-64.166 -52.5 -104.499 -67.5s-84.833 -22.5 -133.5 -22.5c-19.333 0 -40 1 -62 3s-46.5 7 -73.5 15s-58 19.667 -93 35s-74.833 35.666 -119.5 60.999l-19 -104h-117zM235.998 239.998c27.333 -19.333 56.333 -36.5 87 -51.5
s61 -27.667 91 -38s59 -18.5 87 -24.5s52 -9 72 -9c64 0 114.5 19.333 151.5 58s55.5 102 55.5 190v280c0 90 -18 153.5 -54 190.5s-87 55.5 -153 55.5c-44 0 -96.167 -14 -156.5 -42s-120.5 -61.667 -180.5 -101v-508z" />
    <glyph glyph-name="c" unicode="c" horiz-adv-x="860" 
d="M98 352l-0.000976562 301c0 56 10.333 106.833 31 152.5s49 84.667 85 117s78 57.333 126 75s99.333 26.5 154 26.5c56 0 113 -7.5 171 -22.5s108.667 -45.167 152 -90.5l-82 -102c-42 36.667 -83.167 60.5 -123.5 71.5s-76.833 16.5 -109.5 16.5
c-31.333 0 -63.166 -4.83301 -95.499 -14.5s-61.333 -25 -87 -46s-46.5 -49 -62.5 -84s-24 -76.833 -24 -125.5v-242c0 -49.333 8 -91 24 -125s36.5 -61.667 61.5 -83s53.667 -37 86 -47s64.833 -15 97.5 -15c31.333 0 69.5 6.16699 114.5 18.5s83.167 32.833 114.5 61.5
l84 -97c-45.333 -39.333 -95.5 -67.166 -150.5 -83.499s-110.5 -24.5 -166.5 -24.5c-60 0 -114.667 8.83301 -164 26.5s-91.333 42.5 -126 74.5s-61.667 70.167 -81 114.5s-29 93.166 -29 146.499z" />
    <glyph glyph-name="d" unicode="d" horiz-adv-x="1005" 
d="M96 342l-0.000976562 324c0 114.667 33.167 202.667 99.5 264s151.5 92 255.5 92c38 0 83 -4.83301 135 -14.5s114.667 -29.5 188 -59.5v518h133v-1466h-114l-19 119c-44 -27.333 -83.333 -49.5 -118 -66.5s-66 -30 -94 -39s-53.167 -15.167 -75.5 -18.5
s-43.166 -5 -62.499 -5c-98 0 -177.167 28.333 -237.5 85s-90.5 145.667 -90.5 267zM228.999 356c0 -88.667 18.168 -150.666 54.501 -185.999s86.5 -53 150.5 -53c44 0 97.333 13 160 39s122.667 58.667 180 98v559c-122.667 54.667 -226.334 82 -311.001 82h-7
c-69.333 -0.666992 -124 -20.334 -164 -59.001c-41.333 -40 -62.333 -104.333 -63 -193v-287z" />
    <glyph glyph-name="e" unicode="e" horiz-adv-x="972" 
d="M98 358l-0.000976562 274.999c0 58.667 10 112.167 30 160.5s47.667 89.333 83 123s77.666 59.667 126.999 78s103.333 27.5 162 27.5s112.167 -8.83301 160.5 -26.5s90 -43.334 125 -77.001s62 -73.667 81 -120s28.5 -98.166 28.5 -155.499v-190h-662v-80
c0 -48 8 -88.667 24 -122s36.833 -60.666 62.5 -81.999s55.334 -36.666 89.001 -45.999s68.834 -14 105.501 -14c44 0 88.833 8.16699 134.5 24.5s88.167 42.833 127.5 79.5l84 -92c-48 -48 -102 -81.833 -162 -101.5s-122.667 -29.5 -188 -29.5
c-57.333 0 -111 7.5 -161 22.5s-93.333 37.833 -130 68.5s-66 69.167 -88 115.5s-33 100.166 -33 161.499zM232.999 564.999l526.998 0.000976562v62c0 49.333 -7.16699 91 -21.5 125s-33.833 61.833 -58.5 83.5s-52.667 37.667 -84 48s-63.333 15.5 -96 15.5
c-34 0 -67.167 -5.5 -99.5 -16.5s-60.666 -27.333 -84.999 -49s-44.166 -49.334 -59.499 -83.001s-23 -73.5 -23 -119.5v-66z" />
    <glyph glyph-name="f" unicode="f" horiz-adv-x="600" 
d="M57 889l-0.000976562 122.999h125v202c0 42 6.5 79.167 19.5 111.5s30.833 59.166 53.5 80.499s49.334 37 80.001 47s63 15 97 15h166v-118h-147c-27.333 0 -50 -4.16699 -68 -12.5s-32 -19.666 -42 -33.999s-16.833 -30.666 -20.5 -48.999s-5.5 -38.5 -5.5 -60.5v-182
h283v-123h-283v-889h-133v889h-125z" />
    <glyph glyph-name="g" unicode="g" horiz-adv-x="1001" 
d="M88 340l-0.00292969 328c0 57.333 8.16699 108.166 24.5 152.499s39.166 81.166 68.499 110.499s64.5 51.833 105.5 67.5s85.5 23.5 133.5 23.5c18 0 38.167 -1.33301 60.5 -4s47.833 -8.5 76.5 -17.5s60 -21.667 94 -38s73 -38.166 117 -65.499l18 115h117v-1082
c0 -57.333 -10.833 -108.5 -32.5 -153.5s-51.667 -82.5 -90 -112.5s-83.166 -52.833 -134.499 -68.5s-105.666 -23.5 -162.999 -23.5s-117.333 8.83301 -180 26.5s-118.667 47.834 -168 90.501l86 100c16.667 -15.333 35.834 -28.333 57.501 -39s44.167 -20.167 67.5 -28.5
s47 -14.5 71 -18.5s46 -6 66 -6c36.667 0 72.5 4.83301 107.5 14.5s65.5 25 91.5 46s46.833 48.5 62.5 82.5s23.5 75.667 23.5 125v152c-82 -52 -151.333 -86.167 -208 -102.5s-104.667 -24.5 -144 -24.5h-6c-95.333 0 -172.666 29.333 -231.999 88
c-60 60 -90 147.333 -90 262zM222.997 365c0 -88.667 17.8301 -152.167 53.4971 -190.5s86.167 -57.5 151.5 -57.5c46.667 0 100.334 12.167 161.001 36.5s120.334 55.833 179.001 94.5v508c-61.333 44 -121.666 77.5 -180.999 100.5s-111 34.5 -155 34.5
c-65.333 0 -116.5 -18.833 -153.5 -56.5s-55.5 -101.5 -55.5 -191.5v-278z" />
    <glyph glyph-name="h" unicode="h" horiz-adv-x="999" 
d="M98 0v1466h135v-581c87.333 56 159.833 92.833 217.5 110.5s106.167 26.5 145.5 26.5c106.667 0 186.167 -30 238.5 -90s78.5 -148 78.5 -264v-668h-135v645c0 90 -18 153.5 -54 190.5s-86.333 55.5 -151 55.5c-45.333 0 -99 -13 -161 -39s-121.667 -57.333 -179 -94
v-758h-135z" />
    <glyph glyph-name="i" unicode="i" horiz-adv-x="417" 
d="M123 1329c0 24.667 8.5 45.167 25.5 61.5s37.167 24.5 60.5 24.5s43.5 -8.16699 60.5 -24.5s25.5 -36.833 25.5 -61.5c0 -23.333 -8.5 -43.5 -25.5 -60.5s-37.167 -25.5 -60.5 -25.5s-43.5 8.5 -60.5 25.5s-25.5 37.167 -25.5 60.5zM141 0v1012h133v-1012h-133z" />
    <glyph glyph-name="j" unicode="j" horiz-adv-x="475" 
d="M-29 -301l72 0.000976562c56 0 94.167 12.667 114.5 38s30.5 72.666 30.5 141.999v1131h136v-1151c0 -101.333 -22.333 -173.5 -67 -216.5s-110 -64.5 -196 -64.5h-90v121zM172 1329c0 24.667 8.16699 45.167 24.5 61.5s36.166 24.5 59.499 24.5
s43.5 -8.16699 60.5 -24.5s25.5 -36.833 25.5 -61.5c0 -23.333 -8.5 -43.5 -25.5 -60.5s-37.167 -25.5 -60.5 -25.5s-43.166 8.5 -59.499 25.5s-24.5 37.167 -24.5 60.5z" />
    <glyph glyph-name="k" unicode="k" horiz-adv-x="952" 
d="M96 0l-0.000976562 1466h133v-819h191c42 0 81.167 8.16699 117.5 24.5s68.166 53.166 95.499 110.499l115 234h149l-119 -258c-19.333 -39.333 -39.833 -72.833 -61.5 -100.5s-54.5 -49.5 -98.5 -65.5c28.667 -6.66699 52.334 -17.167 71.001 -31.5
s34.5 -30.833 47.5 -49.5s23.5 -38.834 31.5 -60.501s15.667 -43.5 23 -65.5l131 -385h-148l-115 338c-12 36.667 -24.833 66.667 -38.5 90s-28.667 41.5 -45 54.5s-35.166 21.833 -56.499 26.5s-47 7 -77 7h-213v-516h-133z" />
    <glyph glyph-name="l" unicode="l" horiz-adv-x="540" 
d="M178 233l-0.000976562 1233h133v-1214c0 -58.667 12 -96 36 -112c20.667 -14 53 -21.333 97 -22c7.33301 0 15 0.333008 23 1l4 -123c-15.333 -2.66699 -29.666 -4.33398 -42.999 -5.00098s-27 -1 -41 -1c-82 0 -137.333 20.833 -166 62.5s-43 101.834 -43 180.501z" />
    <glyph glyph-name="m" unicode="m" horiz-adv-x="1531" 
d="M88 0l0.000976562 1012h117l18 -129c38 28.667 72.5 52.167 103.5 70.5s59.5 32.666 85.5 42.999s49.833 17.166 71.5 20.499s42.834 5 63.501 5c69.333 0 124.166 -15.333 164.499 -46s70.166 -70 89.499 -118c42 35.333 80.167 64 114.5 86s65.5 38.833 93.5 50.5
s52.5 19.167 73.5 22.5s41.167 5 60.5 5c96.667 0 171 -27.667 223 -83s78 -138.333 78 -249v-690h-135v657c0 76.667 -14 134.834 -42 174.501s-77 59.5 -147 59.5c-42 0 -87 -12.667 -135 -38s-100.667 -61.333 -158 -108c2.66699 -15.333 4.5 -28.666 5.5 -39.999
s1.5 -24.333 1.5 -39v-666h-136v662c0 152.667 -58.667 229 -176 229c-40.667 0 -84.167 -9.5 -130.5 -28.5s-102.5 -52.5 -168.5 -100.5v-762h-135z" />
    <glyph glyph-name="n" unicode="n" horiz-adv-x="1001" 
d="M94 0l-0.00195312 1012h117l18 -127c91.333 56 164.833 92.833 220.5 110.5s103.834 26.5 144.501 26.5c100 0 177.5 -30 232.5 -90s82.5 -148 82.5 -264v-668h-135v645c0 90 -18.667 153.667 -56 191c-36 36.667 -84.667 55 -146 55h-7
c-45.333 0 -97.666 -12.667 -156.999 -38s-119 -57.666 -179 -96.999v-756h-135z" />
    <glyph glyph-name="o" unicode="o" horiz-adv-x="1007" 
d="M96 356l0.000976562 298.999c0 57.333 11 108.666 33 153.999s51.333 83.666 88 114.999s80 55.5 130 72.5s103 25.5 159 25.5c58.667 0 112.834 -8.5 162.501 -25.5s92.667 -41.167 129 -72.5s64.666 -69.666 84.999 -114.999s30.5 -96.666 30.5 -153.999v-299
c0 -57.333 -10.167 -108.833 -30.5 -154.5s-49 -84.167 -86 -115.5s-80.333 -55.166 -130 -71.499s-103.834 -24.5 -162.501 -24.5s-113 8.16699 -163 24.5s-93 40.5 -129 72.5s-64.333 70.5 -85 115.5s-31 96.167 -31 153.5zM231.001 384.999
c0 -49.333 7.49902 -91.333 22.499 -126s35.167 -63 60.5 -85s54.833 -37.667 88.5 -47s68.834 -14 105.501 -14c34 0 67 5 99 15s61 25.667 87 47s46.833 49.333 62.5 84s23.5 76.667 23.5 126v242c0 49.333 -8.16699 91 -24.5 125s-37.833 61.833 -64.5 83.5
s-56 37.334 -88 47.001s-63.667 14.5 -95 14.5c-32.667 0 -65.5 -4.83301 -98.5 -14.5s-62.667 -25.334 -89 -47.001s-47.833 -49.667 -64.5 -84s-25 -75.833 -25 -124.5v-242z" />
    <glyph glyph-name="p" unicode="p" horiz-adv-x="1007" 
d="M102 -410v1418h115l19 -119c44 27.333 83.667 49.833 119 67.5s67 31.334 95 41.001s52.833 16.167 74.5 19.5s42.167 5 61.5 5c98 0 177.333 -28.667 238 -86s91 -146.666 91 -267.999v-324c0 -114.667 -31.333 -202.667 -94 -264s-149.334 -92 -260.001 -92
c-39.333 0 -84.666 4 -135.999 12s-114.333 30 -189 66v-476h-134zM236 196.998c69.333 -31.333 127.834 -53.168 175.501 -65.501s93.5 -18.5 137.5 -18.5c70.667 0 126.834 18.667 168.501 56s62.5 100.333 62.5 189v293c0 88.667 -18.333 150.834 -55 186.501
s-86.667 53.5 -150 53.5c-20.667 0 -44.834 -3.5 -72.501 -10.5s-56.5 -16.5 -86.5 -28.5s-60.333 -26.667 -91 -44s-60.334 -35.333 -89.001 -54v-557z" />
    <glyph glyph-name="q" unicode="q" 
d="M92 342v328c0 114.667 30.667 202 92 262s140.666 90 237.999 90c19.333 0 39.833 -1.33301 61.5 -4s46.5 -8.16699 74.5 -16.5s59.5 -20.333 94.5 -36s74.833 -36.5 119.5 -62.5l19 107h114v-1422h-133v525c-44 -27.333 -83.667 -48.833 -119 -64.5s-67 -28 -95 -37
s-53.167 -14.833 -75.5 -17.5s-43.166 -4 -62.499 -4c-98 0 -177.167 29.667 -237.5 89s-90.5 147 -90.5 263zM225 365c0 -87.333 18.3301 -150.333 54.9971 -189c34.667 -38 83.334 -57 146.001 -57h6c44 0 95.667 11.167 155 33.5s121 55.5 185 99.5v516
c-61.333 39.333 -122.666 70.333 -183.999 93s-112.666 34 -153.999 34c-65.333 0 -116.5 -19.833 -153.5 -59.5s-55.5 -102.5 -55.5 -188.5v-282z" />
    <glyph glyph-name="r" unicode="r" horiz-adv-x="643" 
d="M135 0l-0.000976562 1012h119l16 -150h2c19.333 18 43 36.5 71 55.5s58 36 90 51s65.5 27.667 100.5 38s69.5 16.166 103.5 17.499v-147c-91.333 -9.33301 -167.166 -27.5 -227.499 -54.5s-106.833 -51.167 -139.5 -72.5v-750h-135z" />
    <glyph glyph-name="s" unicode="s" horiz-adv-x="915" 
d="M68 106l70.9971 101.002c50.667 -39.333 103 -67 157 -83s113 -24 177 -24c28.667 0 57.334 3.16699 86.001 9.5s54.667 16.666 78 30.999s42.166 33 56.499 56s21.5 51.833 21.5 86.5c0 44 -14.333 77.5 -43 100.5s-69 40.5 -121 52.5c-48 12 -99 22.5 -153 31.5
s-103.5 22.833 -148.5 41.5s-82.167 44.667 -111.5 78s-44 80 -44 140c0 44 8.83301 84 26.5 120s42.334 67 74.001 93s69.667 46.167 114 60.5s92.5 21.5 144.5 21.5c74 0 138.833 -7.16699 194.5 -21.5s108.834 -39.166 159.501 -74.499l-33.5 -50.5l-34.5 -50.5
c-45.333 27.333 -91.166 47.166 -137.499 59.499s-95.166 18.5 -146.499 18.5c-69.333 0 -125.333 -16.333 -168 -49s-64 -75 -64 -127c0 -24.667 6.16699 -45.5 18.5 -62.5s29.166 -31.333 50.499 -43s46.666 -21.167 75.999 -28.5s61 -14.666 95 -21.999
c42 -8 86 -16.833 132 -26.5s88 -24.667 126 -45s69 -47.833 93 -82.5s36 -80.667 36 -138c0 -44 -9.16699 -83.833 -27.5 -119.5s-44.666 -66.334 -78.999 -92.001s-75 -45.334 -122 -59.001s-99.833 -20.5 -158.5 -20.5c-68 0 -134.833 7.83301 -200.5 23.5
s-130.5 47.167 -194.5 94.5z" />
    <glyph glyph-name="t" unicode="t" horiz-adv-x="714" 
d="M61 889l-0.00195312 123.001h152l35 237h96v-237h291v-123h-291v-553c0 -84.667 14 -142.334 42 -173.001s71.333 -46 130 -46c20.667 0 44.334 1.33301 71.001 4s54.334 6.66699 83.001 12l20 -115c-35.333 -10.667 -71.5 -18 -108.5 -22s-64.833 -6 -83.5 -6
c-104 0 -177.833 23.5 -221.5 70.5s-65.5 125.833 -65.5 236.5v592h-150z" />
    <glyph glyph-name="u" unicode="u" horiz-adv-x="1007" 
d="M92 342l0.000976562 669.999h135v-650c0 -88.667 19.167 -151.667 57.5 -189s89.5 -56 153.5 -56c45.333 0 97 13 155 39s117.667 60.667 179 104v752h137v-1012h-118l-19 123c-44 -27.333 -83 -49.5 -117 -66.5s-64.667 -30.667 -92 -41s-51.833 -17.166 -73.5 -20.499
s-42.834 -5 -63.501 -5c-106.667 0 -189 29.667 -247 89s-87 147 -87 263z" />
    <glyph glyph-name="v" unicode="v" horiz-adv-x="909" 
d="M23 1010h145l147 -435l41 -120.5c14 -39.667 26.5 -77.167 37.5 -112.5l30.5 -95l22 -67h13l127 385l151 445h146l-363 -1010h-135l-181 504z" />
    <glyph glyph-name="w" unicode="w" horiz-adv-x="1406" 
d="M31 1012l138.997 -0.000976562l20.5 -75l30 -110.5l29.5 -110.5l20 -75l123 -442h4l154 458c4 9.33301 10.167 26.333 18.5 51l26.5 79l26.5 78c8.33301 24 13.833 41.667 16.5 53h139l119 -357c2.66699 -6.66699 9.83398 -28.167 21.501 -64.5l39 -117l39 -116.5
c11.667 -36 18.834 -57.333 21.501 -64h6l115 426l104 387h135l-34.5 -121l-50 -179.5l-58.5 -207l-58.5 -205.5l-49 -178c-14.333 -53.333 -25.5 -93.666 -33.5 -120.999h-136l-139 420l-27.5 78l-35 103l-31.5 93c-9.33301 27.333 -14.666 44.333 -15.999 51h-4l-111 -335
l-135 -410h-133l-36 121l-52.5 178l-60.5 205.5l-59.5 207l-51 178.5z" />
    <glyph glyph-name="x" unicode="x" horiz-adv-x="856" 
d="M6 0l340 518l-321 494h163l236 -385l238 385h161l-325 -492l340 -520h-164l-252 410l-254 -410h-162z" />
    <glyph glyph-name="y" unicode="y" horiz-adv-x="917" 
d="M18 1010h143.998c6.66699 -19.333 16.5 -50.5 29.5 -93.5l40 -135l40 -135c13 -43 22.833 -74.167 29.5 -93.5l133 -430h4l154 430l33.5 93.5l48 135l47 135c15 43 26.167 74.167 33.5 93.5h143c-15.333 -39.333 -36.166 -96.333 -62.499 -171l-91 -250l-106.5 -288.5
l-105.5 -289l-91.5 -250c-27.333 -74.333 -47.666 -131.5 -60.999 -171.5h-146l150 422l-72 66z" />
    <glyph glyph-name="z" unicode="z" horiz-adv-x="890" 
d="M74 0v109l571 782h-541v119h707v-111l-569 -780h569v-119h-737z" />
    <glyph glyph-name="braceleft" unicode="{" horiz-adv-x="507" 
d="M45 565l-0.00195312 80.001c28.667 5.33301 52.834 17.333 72.501 36s35.334 40.834 47.001 66.501s20.334 54.667 26.001 87s8.5 64.833 8.5 97.5v276c0 65.333 16.333 117.833 49 157.5s75 59.5 127 59.5h117v-86h-76c-22 0 -39.833 -5.66699 -53.5 -17
s-24.334 -26.333 -32.001 -45s-12.834 -38.5 -15.501 -59.5s-4 -41.833 -4 -62.5v-266c0 -44 -5 -82.333 -15 -115s-22.5 -60.334 -37.5 -83.001s-30.833 -40.834 -47.5 -54.501s-31.667 -22.5 -45 -26.5v-4c13.333 -4 28.666 -12.833 45.999 -26.5s33.5 -31.667 48.5 -54
s27.167 -49.666 36.5 -81.999s14 -68.833 14 -109.5v-281c0 -20.667 1.33301 -41.834 4 -63.501s7.83398 -41.667 15.501 -60s18.334 -33.333 32.001 -45s31.5 -17.5 53.5 -17.5h76v-84h-117c-52 0 -94.667 17.333 -128 52s-50 89 -50 163v285
c0 80.667 -11 145.167 -33 193.5s-61.667 77.833 -119 88.5z" />
    <glyph glyph-name="bar" unicode="|" horiz-adv-x="387" 
d="M145 -332v1798h103v-1798h-103z" />
    <glyph glyph-name="braceright" unicode="}" horiz-adv-x="507" 
d="M39 -133l77.9961 0.000976562c22 0 39.667 5.83301 53 17.5s23.833 26.667 31.5 45s12.834 38.5 15.501 60.5s4 43 4 63v281c0 40.667 4.83301 77.167 14.5 109.5s22 59.666 37 81.999s30.667 40.333 47 54s32.166 22.5 47.499 26.5v4
c-13.333 4 -28.666 12.833 -45.999 26.5s-33.166 31.834 -47.499 54.501s-26.666 50.334 -36.999 83.001s-15.5 71 -15.5 115v266c0 20.667 -0.666992 41.5 -2 62.5s-5.33301 40.833 -12 59.5s-17.167 33.667 -31.5 45s-33.833 17 -58.5 17h-78v80h117
c60 0 104.667 -19.833 134 -59.5s44 -90.167 44 -151.5v-276c0 -32.667 2.33301 -65.167 7 -97.5s13.167 -61.333 25.5 -87s28.333 -47.834 48 -66.501s43.834 -30.667 72.501 -36v-80c-57.333 -10.667 -96.833 -40.334 -118.5 -89.001s-32.5 -113 -32.5 -193v-285
c0 -65.333 -16.333 -117.5 -49 -156.5s-75 -58.5 -127 -58.5h-121v84z" />
    <glyph glyph-name="asciitilde" unicode="~" 
d="M51 549c32.667 52 70.5029 90.5 113.503 115.5s88.5 37.5 136.5 37.5c34 0 68.167 -6.33301 102.5 -19s68.5 -27 102.5 -43s67.333 -30.333 100 -43s65.667 -19 99 -19c35.333 0 64.166 8.83301 86.499 26.5s46.5 44.167 72.5 79.5l86 -61
c-32.667 -52 -67.834 -92 -105.501 -120s-85.834 -42 -144.501 -42c-31.333 0 -64.333 6.5 -99 19.5s-69.5 27.333 -104.5 43s-69.5 30 -103.5 43s-65.333 19.5 -94 19.5c-35.333 0 -65 -9 -89 -27s-49 -42.667 -75 -74z" />
    <glyph glyph-name="uni00A0" unicode="&#xa0;" horiz-adv-x="456" 
 />
    <glyph glyph-name="cent" unicode="&#xa2;" horiz-adv-x="892" 
d="M98 352l0.00195312 301c0 53.333 9.33301 101.5 28 144.5s44 80.5 76 112.5s69.5 57.667 112.5 77s89.833 31 140.5 35v-129c-28.667 -4 -56.334 -11.833 -83.001 -23.5s-50.334 -28.5 -71.001 -50.5s-37.167 -48.5 -49.5 -79.5s-18.5 -68.5 -18.5 -112.5v-242
c0 -44 6.16699 -81.667 18.5 -113s28.833 -57.833 49.5 -79.5s44.334 -38.667 71.001 -51s54.334 -20.5 83.001 -24.5v-125c-54.667 4 -103.834 15.5 -147.501 34.5s-80.834 44.333 -111.501 76s-54.667 68.5 -72 110.5s-26 88.333 -26 139zM455.002 -8
c6.66699 -1.33301 13.667 -2 21 -2h22h32v-228h-75v230zM455.002 117v776c6.66699 1.33301 14.167 2.33301 22.5 3s16.5 1 24.5 1h13c4.66699 0 9.66699 -0.666992 15 -2v-780h-28h-24.5c-8.33301 0 -15.833 0.666992 -22.5 2zM455.002 1022v215h75v-215
c-6.66699 1.33301 -12.667 2 -18 2h-18h-19.5c-6.33301 0 -12.833 -0.666992 -19.5 -2zM530.002 -10v125c31.333 2.66699 65.833 10.5 103.5 23.5s70.167 31.833 97.5 56.5l84 -97c-40.667 -35.333 -85.667 -61.5 -135 -78.5s-99.333 -26.833 -150 -29.5zM530.002 895
l-0.000976562 126.999c50.667 -2.66699 101.334 -12 152.001 -28s95.667 -43.667 135 -83l-82 -102c-36.667 31.333 -72.5 52.833 -107.5 64.5s-67.5 18.834 -97.5 21.501z" />
    <glyph glyph-name="sterling" unicode="&#xa3;" 
d="M94 604l-0.00292969 105.001h152c-5.33301 32.667 -13.166 63.667 -23.499 93l-31 88c-10.333 29.333 -19.166 58.666 -26.499 87.999s-11 59.666 -11 90.999c0 46.667 8.16699 91.5 24.5 134.5s40.166 80.833 71.499 113.5s69.833 58.834 115.5 78.501
s98.5 29.5 158.5 29.5c88.667 0 164.167 -13.667 226.5 -41s117.166 -73.666 164.499 -138.999c-16.667 -12 -33.667 -25.5 -51 -40.5l-51 -43.5c-39.333 52 -83.666 89 -132.999 111s-101.333 33 -156 33c-23.333 0 -47.833 -3.83301 -73.5 -11.5
s-50.167 -20.667 -73.5 -39s-42.5 -42.5 -57.5 -72.5s-22.5 -67.667 -22.5 -113c0 -30 3.33301 -59.333 10 -88s15.167 -57.334 25.5 -86.001s20.333 -58.334 30 -89.001s17.834 -63 24.501 -97h318v-105h-308c-1.33301 -86 -11.166 -168.833 -29.499 -248.5
s-54.833 -158.5 -109.5 -236.5h668v-119h-830v102c27.333 36.667 52 72.834 74 108.501s40.5 73 55.5 112s26.5 81.333 34.5 127s12 97.167 12 154.5h-178z" />
    <glyph glyph-name="yen" unicode="&#xa5;" 
d="M41 1411h158l143 -342l150 -367h12l160 379l139 330h153l-155.5 -353l-155.5 -353h270v-97h-311l-31 -69v-121h342v-90h-342v-328h-145v328h-338v90h338v117l-33 73h-305v97h264z" />
    <glyph glyph-name="dieresis" unicode="&#xa8;" horiz-adv-x="978" 
d="M211 1319c0 23.333 7.83301 43.166 23.5 59.499s34.5 24.5 56.5 24.5c23.333 0 43.5 -8.16699 60.5 -24.5s25.5 -36.166 25.5 -59.499s-8.5 -42.833 -25.5 -58.5s-37.167 -23.5 -60.5 -23.5c-22 0 -40.833 7.83301 -56.5 23.5s-23.5 35.167 -23.5 58.5zM584 1319
c0 23.333 7.83496 43.166 23.502 59.499s35.167 24.5 58.5 24.5s43.166 -8.16699 59.499 -24.5s24.5 -36.166 24.5 -59.499s-8.33301 -42.833 -25 -58.5s-36.334 -23.5 -59.001 -23.5c-23.333 0 -42.833 7.83301 -58.5 23.5s-23.5 35.167 -23.5 58.5z" />
    <glyph glyph-name="copyright" unicode="&#xa9;" horiz-adv-x="1622" 
d="M111 698c0 102.667 17.999 198.001 53.999 286.001s85.833 164.167 149.5 228.5s138.5 114.5 224.5 150.5s178.667 54 278 54c100 0 193.333 -18 280 -54s161.667 -86.167 225 -150.5s113.166 -140.5 149.499 -228.5s54.5 -183.333 54.5 -286
s-18.167 -197.5 -54.5 -284.5s-86.166 -162.667 -149.499 -227s-138.333 -114.5 -225 -150.5s-180 -54 -280 -54c-101.333 0 -195.166 18 -281.499 54s-161 86.167 -224 150.5s-112.167 140.166 -147.5 227.499s-53 182 -53 284zM212.999 698.001
c0 -87.333 15.333 -168.5 46 -243.5s73.334 -140.167 128.001 -195.5s118.5 -99 191.5 -131s152.5 -48 238.5 -48s165.833 16 239.5 48s137.5 75.667 191.5 131s96.333 120.5 127 195.5s46 156.167 46 243.5s-15.333 169.333 -46 246s-73 142.667 -127 198
s-117.833 99 -191.5 131s-153.5 48 -239.5 48s-165.5 -16 -238.5 -48s-136.833 -75.667 -191.5 -131s-97.334 -121.333 -128.001 -198s-46 -158.667 -46 -246zM484.999 561.001v260c0 48 9 91.5 27 130.5s42.333 72.167 73 99.5s66.667 48.5 108 63.5s86 22.5 134 22.5
c104 0 190.667 -26.667 260 -80l-53 -82c-27.333 22 -59.333 38.333 -96 49s-73.667 16 -111 16c-30 0 -59 -4.33301 -87 -13s-53.167 -22.667 -75.5 -42s-40.333 -44.333 -54 -75s-20.5 -67 -20.5 -109v-219c0 -42 6.83301 -78.5 20.5 -109.5s31.667 -56 54 -75
s47.166 -33.333 74.499 -43s55.333 -14.5 84 -14.5c38 0 75.5 5.5 112.5 16.5s71.167 28.167 102.5 51.5l54 -82c-28.667 -22 -66 -41.167 -112 -57.5s-97 -24.5 -153 -24.5c-49.333 0 -94.666 7.5 -135.999 22.5s-77.333 36.5 -108 64.5s-54.667 61.333 -72 100
s-26 82 -26 130z" />
    <glyph glyph-name="guillemotleft" unicode="&#xab;" horiz-adv-x="886" 
d="M109 463l249 366h127l-245 -366l245 -369h-129zM424 463l250 366h125l-244 -366l244 -369h-125z" />
    <glyph glyph-name="uni00AD" unicode="&#xad;" horiz-adv-x="780" 
d="M106 485v123h568v-123h-568z" />
    <glyph glyph-name="registered" unicode="&#xae;" horiz-adv-x="1132" 
d="M143 1008c0 61.333 11 118.165 33 170.498s52.167 97.666 90.5 135.999s83 68.5 134 90.5s106.5 33 166.5 33s116 -11 168 -33s96.833 -52.167 134.5 -90.5s67.334 -83.666 89.001 -135.999s32.5 -109.166 32.5 -170.499s-10.833 -118 -32.5 -170
s-51.334 -96.833 -89.001 -134.5s-82.5 -67.334 -134.5 -89.001s-108 -32.5 -168 -32.5s-115.5 10.833 -166.5 32.5s-95.667 51.334 -134 89.001s-68.5 82.334 -90.5 134.001s-33 108.5 -33 170.5zM213 1008c0 -52 8.83301 -100.168 26.5 -144.501s42.5 -83 74.5 -116
s69.667 -58.667 113 -77s90 -27.5 140 -27.5c50.667 0 97.5 9.16699 140.5 27.5s80.167 44 111.5 77s56.333 71.667 75 116s28 92.5 28 144.5s-9.33301 100.5 -28 145.5s-43.667 83.833 -75 116.5s-68.5 58.167 -111.5 76.5s-89.833 27.5 -140.5 27.5
s-97.5 -9.16699 -140.5 -27.5s-80.5 -43.833 -112.5 -76.5s-56.833 -71.667 -74.5 -117s-26.5 -93.666 -26.5 -144.999zM410 759.998l-0.000976562 495h202c42 0 77.167 -12.167 105.5 -36.5s42.5 -57.833 42.5 -100.5c0 -32.667 -9.66699 -61 -29 -85
s-44.666 -40.667 -75.999 -50l117 -223h-80l-108 213h-105v-213h-69zM478.999 1038h121c26 0 47.5 6.83301 64.5 20.5s25.5 33.5 25.5 59.5c0 27.333 -8.5 46.833 -25.5 58.5s-37.833 17.5 -62.5 17.5h-123v-156z" />
    <glyph glyph-name="acute" unicode="&#xb4;" 
d="M408 1174l153 339l135 -45l-204 -327z" />
    <glyph glyph-name="cedilla" unicode="&#xb8;" horiz-adv-x="866" 
d="M309 -377l27.002 69.9961c26 -8 50.833 -13.833 74.5 -17.5s45.167 -5.5 64.5 -5.5c31.333 0 58.333 6.5 81 19.5s34 33.833 34 62.5c0 22 -9.66699 42.167 -29 60.5s-46.666 27.5 -81.999 27.5h-14c-5.33301 0 -10.666 -0.666992 -15.999 -2l-52 29l58 188
c13.333 0 26.166 -0.666992 38.499 -2s24.5 -2 36.5 -2l-43 -135c38 -1.33301 69.833 -7.83301 95.5 -19.5s46 -25.667 61 -42s25.833 -33.666 32.5 -51.999s10 -35.166 10 -50.499c0 -16.667 -3.33301 -34.167 -10 -52.5s-18.334 -35.666 -35.001 -51.999
s-37.834 -29.666 -63.501 -39.999s-57.834 -15.5 -96.501 -15.5c-19.333 0 -44 1.83301 -74 5.5s-62.667 12.167 -98 25.5z" />
    <glyph glyph-name="guillemotright" unicode="&#xbb;" horiz-adv-x="886" 
d="M111 94l241 369l-241 366h125l251 -366l-249 -369h-127zM426 94l244 369l-244 366h125l250 -366l-250 -369h-125z" />
    <glyph glyph-name="circumflex" unicode="&#x2c6;" 
d="M176 1196l291 283h92l275 -281l-62 -61l-266 209l-266 -211z" />
    <glyph glyph-name="ring" unicode="&#x2da;" horiz-adv-x="989" 
d="M317 1319c0 56 19.5 102.833 58.5 140.5s86.5 56.5 142.5 56.5s103.5 -18.833 142.5 -56.5s58.5 -84.5 58.5 -140.5s-19.5 -103.5 -58.5 -142.5s-86.5 -58.5 -142.5 -58.5s-103.5 19.5 -142.5 58.5s-58.5 86.5 -58.5 142.5zM397 1319c0 -34 11.667 -62.667 35 -86
s52 -35 86 -35c35.333 0 64.333 11.667 87 35s34 52 34 86c0 32.667 -11.333 60.667 -34 84s-51.667 35 -87 35c-34 0 -62.667 -11.667 -86 -35s-35 -51.333 -35 -84z" />
    <glyph glyph-name="tilde" unicode="&#x2dc;" 
d="M164 1260c27.333 50.667 58.834 89.5 94.501 116.5s72.5 40.5 110.5 40.5c23.333 0 46.833 -4.66699 70.5 -14s47.167 -19.833 70.5 -31.5l66.5 -32c21 -9.66699 40.5 -14.5 58.5 -14.5c40.667 0 81 29.333 121 88l84 -47c-27.333 -56 -57.5 -96.333 -90.5 -121
s-68.5 -37 -106.5 -37c-23.333 0 -46.166 4.5 -68.499 13.5s-44.833 18.667 -67.5 29s-44.834 19.833 -66.501 28.5s-42.834 13 -63.501 13c-24.667 0 -46.5 -6.5 -65.5 -19.5s-40.167 -33.833 -63.5 -62.5z" />
    <glyph glyph-name="uni0401" unicode="&#x401;" horiz-adv-x="1116" 
d="M121 0v1411h926v-131h-783v-504h672v-131h-672v-516h783v-129h-926zM322 1634c0 23.333 7.83301 42.833 23.5 58.5s34.167 23.5 55.5 23.5c23.333 0 43.5 -7.83301 60.5 -23.5s25.5 -35.167 25.5 -58.5s-8.5 -42.833 -25.5 -58.5s-37.167 -23.5 -60.5 -23.5
c-22 0 -40.667 7.83301 -56 23.5s-23 35.167 -23 58.5zM694 1634c0 23.333 7.83301 42.833 23.5 58.5s35.167 23.5 58.5 23.5s43.166 -7.83301 59.499 -23.5s24.5 -35.167 24.5 -58.5s-8.16699 -42.833 -24.5 -58.5s-36.166 -23.5 -59.499 -23.5s-42.833 7.83301 -58.5 23.5
s-23.5 35.167 -23.5 58.5z" />
    <glyph glyph-name="uni0402" unicode="&#x402;" horiz-adv-x="1431" 
d="M20 1278l-0.000976562 133h1074v-133h-553v-428c72.667 46.667 143 79.834 211 99.501s129.333 29.5 184 29.5c138 0 240 -35.833 306 -107.5s99 -174.5 99 -308.5v-250c0 -70.667 -12.5 -135 -37.5 -193s-60.167 -107.5 -105.5 -148.5s-99 -72.5 -161 -94.5
s-129.667 -33 -203 -33v131c49.333 0 95.666 6.83301 138.999 20.5s81.833 35.167 115.5 64.5s60 66.666 79 111.999s28.5 99.333 28.5 162v205c0 112 -25.333 190.5 -76 235.5s-121 67.5 -211 67.5c-61.333 0 -125.166 -13.667 -191.499 -41s-125.166 -59.333 -176.499 -96
v-705h-146v1278h-375z" />
    <glyph glyph-name="uni0403" unicode="&#x403;" horiz-adv-x="1040" 
d="M125 0v1411h924v-131h-783v-1280h-141zM453 1569l290 235l97 -100l-330 -201z" />
    <glyph glyph-name="uni0404" unicode="&#x404;" horiz-adv-x="1048" 
d="M109 453l-0.00390625 510.002c0 69.333 12.833 132.333 38.5 189s61.167 105.5 106.5 146.5s98.333 72.333 159 94s126.334 32.5 197.001 32.5c150 0 277 -38.667 381 -116l-73 -113c-40.667 31.333 -88.167 55.166 -142.5 71.499s-109.5 24.5 -165.5 24.5
c-45.333 0 -89 -6.83301 -131 -20.5s-80.167 -34.834 -114.5 -63.501s-61.666 -65.834 -81.999 -111.501s-30.5 -100.5 -30.5 -164.5v-144h530v-129h-530v-178c0 -64 10.5 -118.833 31.5 -164.5s48.333 -83.167 82 -112.5s71.667 -51.166 114 -65.499
s84.5 -21.5 126.5 -21.5c57.333 0 113.333 7.83301 168 23.5s104 41.167 148 76.5l71 -111c-39.333 -31.333 -92.5 -59.166 -159.5 -83.499s-141.5 -36.5 -223.5 -36.5c-75.333 0 -143.666 10.833 -204.999 32.5s-114.166 53 -158.499 94s-78.333 90.167 -102 147.5
s-35.5 121.666 -35.5 192.999z" />
    <glyph glyph-name="uni0405" unicode="&#x405;" horiz-adv-x="1118" 
d="M61 145l75.9971 106.998c62.667 -39.333 130.334 -71.666 203.001 -96.999s147 -38 223 -38c102.667 0 185.334 22.833 248.001 68.5s94 110.834 94 195.501c0 50.667 -10.833 91.667 -32.5 123s-50 56.833 -85 76.5s-74 35 -117 46s-85.5 20.5 -127.5 28.5
c-56 9.33301 -110.333 23 -163 41s-99.5 41.667 -140.5 71s-74.167 66.166 -99.5 110.499s-38 99.166 -38 164.499c0 57.333 10.333 110 31 158s50.5 89.333 89.5 124s86 61.667 141 81s117.5 29 187.5 29c78 0 154.5 -7.16699 229.5 -21.5s145.833 -41.5 212.5 -81.5
l-65 -123c-60 32.667 -122.833 56.667 -188.5 72s-130.5 23 -194.5 23c-39.333 0 -77.166 -5.16699 -113.499 -15.5s-68.5 -26.5 -96.5 -48.5s-50.167 -49.667 -66.5 -83s-24.5 -72.666 -24.5 -117.999c0 -44 10.833 -80.167 32.5 -108.5s49.667 -52.166 84 -71.499
s72 -34.333 113 -45s81.167 -20.334 120.5 -29.001c61.333 -13.333 120 -28.5 176 -45.5s104.833 -40.167 146.5 -69.5s75.167 -67 100.5 -113s38 -104.333 38 -175c0 -61.333 -12 -116.333 -36 -165s-57.5 -89.667 -100.5 -123s-94.833 -59.166 -155.5 -77.499
s-128 -27.5 -202 -27.5c-94 0 -181.667 13 -263 39s-160.333 65.333 -237 118z" />
    <glyph glyph-name="uni0406" unicode="&#x406;" horiz-adv-x="479" 
d="M168 0v1411h143v-1411h-143z" />
    <glyph glyph-name="uni0407" unicode="&#x407;" horiz-adv-x="479" 
d="M-27 1686c0 23.333 7.83301 43 23.5 59s34.5 24 56.5 24c23.333 0 43.5 -8 60.5 -24s25.5 -35.667 25.5 -59s-8.5 -42.833 -25.5 -58.5s-37.167 -23.5 -60.5 -23.5c-22 0 -40.833 7.83301 -56.5 23.5s-23.5 35.167 -23.5 58.5zM168 0v1411h143v-1411h-143zM346 1686
c0 23.333 7.83301 43 23.5 59s35.167 24 58.5 24s43.166 -8 59.499 -24s24.5 -35.667 24.5 -59s-8.16699 -42.833 -24.5 -58.5s-36.166 -23.5 -59.499 -23.5s-42.833 7.83301 -58.5 23.5s-23.5 35.167 -23.5 58.5z" />
    <glyph glyph-name="uni0408" unicode="&#x408;" horiz-adv-x="1050" 
d="M41 84l70 115.001c91.333 -54.667 180.666 -82 267.999 -82c52 0 99.833 7.16699 143.5 21.5s81.5 36.166 113.5 65.499s56.833 67.5 74.5 114.5s26.5 103.167 26.5 168.5v924h144v-954c0 -70.667 -11.667 -135.167 -35 -193.5s-56.5 -108 -99.5 -149
s-94.167 -72.667 -153.5 -95s-124.666 -33.5 -195.999 -33.5c-64 0 -128 8.5 -192 25.5s-118.667 41.167 -164 72.5z" />
    <glyph glyph-name="uni0409" unicode="&#x409;" horiz-adv-x="1863" 
d="M29 70c46.667 28.667 87.333 60.999 122 96.999s63.167 81.667 85.5 137s39 123.333 50 204s16.5 179 16.5 295v608h696v-612h416c65.333 0 123 -11.667 173 -35s92.333 -53.833 127 -91.5s61 -80 79 -127s27 -95.167 27 -144.5c0 -56 -9.33301 -108.5 -28 -157.5
s-45.334 -91.667 -80.001 -128s-77.667 -64.666 -129 -84.999s-109.666 -30.5 -174.999 -30.5h-557v1280h-412v-508c0 -122.667 -7.5 -229.167 -22.5 -319.5s-37.167 -167.5 -66.5 -231.5s-65.5 -117.5 -108.5 -160.5s-91.833 -78.833 -146.5 -107.5zM998.999 130.999
l389.999 0.00195312c40.667 0 78.334 5.83301 113.001 17.5s64.667 28.667 90 51s45.5 50.166 60.5 83.499s22.5 72.666 22.5 117.999c0 82 -26.5 146.667 -79.5 194s-123.5 71 -211.5 71h-385v-535z" />
    <glyph glyph-name="uni040A" unicode="&#x40a;" horiz-adv-x="1863" 
d="M111 0l-0.000976562 1411h143v-618h588v618h143v-616h418c65.333 0 123.333 -11.333 174 -34s93 -52.5 127 -89.5s59.833 -79 77.5 -126s26.5 -95.167 26.5 -144.5c0 -56 -9.16699 -108.5 -27.5 -157.5s-44.833 -91.667 -79.5 -128s-77.667 -64.666 -129 -84.999
s-109.666 -30.5 -174.999 -30.5h-555v662h-588v-662h-143zM984.999 130.999l393 0.00195312c40.667 0 78.5 5.83301 113.5 17.5s65.167 28.667 90.5 51s45.5 50.166 60.5 83.499s22.5 72.666 22.5 117.999c0 82 -27 146 -81 192s-124 69 -210 69h-389v-531z" />
    <glyph glyph-name="uni040B" unicode="&#x40b;" horiz-adv-x="1431" 
d="M20 1278v133.001h1074v-133h-553v-424c66.667 42 134.5 73.333 203.5 94s131.5 31 187.5 31c75.333 0 138.833 -10.167 190.5 -30.5s93.834 -49.333 126.501 -87s56.167 -83.167 70.5 -136.5s21.5 -113.333 21.5 -180v-545h-145v518
c0 113.333 -21.5 195.666 -64.5 246.999s-113.5 77 -211.5 77c-31.333 0 -63.833 -3.83301 -97.5 -11.5s-66.834 -17.667 -99.501 -30s-64.667 -27 -96 -44s-60 -34.167 -86 -51.5v-705h-146v1278h-375z" />
    <glyph glyph-name="uni040C" unicode="&#x40c;" horiz-adv-x="1132" 
d="M117 0l-0.00292969 1411h141v-620h262c23.333 0 47.666 2.66699 72.999 8s49.833 15.5 73.5 30.5s45.834 36.5 66.501 64.5s38.334 64.667 53.001 110l136 407h137l-129 -405c-22 -68 -49.667 -126 -83 -174s-74 -79.667 -122 -95c62.667 -16.667 110 -49.5 142 -98.5
s58.333 -108.167 79 -177.5l139 -461h-149l-133 440c-13.333 46.667 -29.666 84.667 -48.999 114s-40.666 52.166 -63.999 68.499s-47.833 27.666 -73.5 33.999s-52.167 9.5 -79.5 9.5h-279v-666h-141zM421.997 1569l291 235l96 -100l-330 -201z" />
    <glyph glyph-name="uni040E" unicode="&#x40e;" horiz-adv-x="1030" 
d="M23 1411h148.998l162 -438l176 -486h8l191 506l157 418h146l-430 -1112c-23.333 -62.667 -46.666 -114.5 -69.999 -155.5s-47.666 -73.5 -72.999 -97.5s-52.333 -40.667 -81 -50s-60 -14 -94 -14h-114v137h88c35.333 0 67 8.5 95 25.5s53.667 51.5 77 103.5l28 71z
M239.998 1686h114.002c5.33301 -36.667 23.166 -69.167 53.499 -97.5s67.166 -42.5 110.499 -42.5c48 0 86 13.333 114 40s44.667 60 50 100h113c-4 -26 -11.167 -53.333 -21.5 -82s-26.5 -55.334 -48.5 -80.001s-49.667 -44.834 -83 -60.501s-74.666 -23.5 -123.999 -23.5
c-50.667 0 -93.334 7.83301 -128.001 23.5s-63 35.834 -85 60.501s-38 51.334 -48 80.001s-15.667 56 -17 82z" />
    <glyph glyph-name="uni040F" unicode="&#x40f;" horiz-adv-x="1236" 
d="M109 0v1411h143v-1282h729v1282h147v-1411h-440v-332h-153v332h-426z" />
    <glyph glyph-name="uni0410" unicode="&#x410;" horiz-adv-x="1193" 
d="M33 0l244.5 705.5l244.5 705.5h152l491 -1411h-155l-55.5 164l-55.5 164h-604l-111 -328h-151zM342 459l512 -0.000976562c-12 40.667 -29.667 95.834 -53 165.501l-74 218l-74 218c-23.333 69.667 -41 124.5 -53 164.5h-6l-52 -164l-72 -218.5l-73 -218z" />
    <glyph glyph-name="uni0411" unicode="&#x411;" horiz-adv-x="1132" 
d="M111 0l-0.000976562 1411h835v-133h-692v-479h420c68 0 127.333 -11.667 178 -35s93 -53.833 127 -91.5s59.167 -80 75.5 -127s24.5 -95.167 24.5 -144.5c0 -56 -9.16699 -108.5 -27.5 -157.5s-44.833 -91.667 -79.5 -128s-77.667 -64.666 -129 -84.999
s-109.666 -30.5 -174.999 -30.5h-557zM253.999 130.999l392.999 0.00195312c40.667 0 78.5 5.83301 113.5 17.5s65.167 28.667 90.5 51s45.5 50.166 60.5 83.499s22.5 72.666 22.5 117.999c0 82 -26.667 146.667 -80 194s-123.666 71 -210.999 71h-389v-535z" />
    <glyph glyph-name="uni0412" unicode="&#x412;" horiz-adv-x="1196" 
d="M117 0l0.000976562 1411h571c65.333 0 122.666 -9.83301 171.999 -29.5s90.333 -46.334 123 -80.001s57.5 -72.334 74.5 -116.001s25.5 -89.834 25.5 -138.501c0 -28.667 -3.33301 -57.834 -10 -87.501s-17.5 -57.667 -32.5 -84s-35.167 -51.166 -60.5 -74.499
s-57 -43.333 -95 -60c39.333 -16.667 73 -37.5 101 -62.5s50.833 -52.833 68.5 -83.5s30.667 -63.167 39 -97.5s12.5 -67.166 12.5 -98.499c0 -50.667 -8.5 -99.834 -25.5 -147.501s-42.333 -90.167 -76 -127.5s-75 -67.333 -124 -90s-105.5 -34 -169.5 -34h-594z
M260.001 129.003l421.999 -0.000976562c86 0 154.333 22.833 205 68.5s76 112.834 76 201.501c0 42 -8 80.167 -24 114.5s-36.833 63.5 -62.5 87.5s-55.667 42.5 -90 55.5s-69.166 19.5 -104.499 19.5h-422v-547zM260 807.002l418 0.000976562
c32.667 0 64.667 5.16699 96 15.5s59.333 25 84 44s44.167 43.167 58.5 72.5s21.5 63.666 21.5 102.999c0 42 -7.5 78.5 -22.5 109.5s-35.167 55.667 -60.5 74s-55 32 -89 41s-70.333 13.5 -109 13.5h-397v-473z" />
    <glyph glyph-name="uni0413" unicode="&#x413;" horiz-adv-x="1040" 
d="M125 0v1411h924v-131h-783v-1280h-141z" />
    <glyph glyph-name="uni0414" unicode="&#x414;" horiz-adv-x="1390" 
d="M20 135l102.999 0.00195312c32.667 30 61.334 63.167 86.001 99.5s45.167 81.166 61.5 134.499s29.333 117.166 39 191.499s16.5 164.5 20.5 270.5l22 580h867v-1280h110v-434h-141v303h-1028v-303h-140v438zM300.999 131.002h770v1149h-588l-20 -477
c-4 -92.667 -9.83301 -173.5 -17.5 -242.5s-17.667 -130.167 -30 -183.5s-28 -99.833 -47 -139.5s-41.5 -75.167 -67.5 -106.5z" />
    <glyph glyph-name="uni0415" unicode="&#x415;" horiz-adv-x="1116" 
d="M121 0v1411h926v-131h-783v-504h672v-131h-672v-516h783v-129h-926z" />
    <glyph glyph-name="uni0416" unicode="&#x416;" horiz-adv-x="1763" 
d="M49 0l136.996 456.999c20.667 69.333 47 129.333 79 180s79.667 84 143 100c-48 15.333 -89.167 45.833 -123.5 91.5s-61.5 103.167 -81.5 172.5l-127 410h139l131 -407c13.333 -45.333 30.666 -82 51.999 -110s44.333 -49.833 69 -65.5s49.667 -25.834 75 -30.501
s50 -7 74 -7h195v620h143v-620h195c24.667 0 49.667 2.33301 75 7s49.833 14.834 73.5 30.501s46.167 37.5 67.5 65.5s39.333 64.667 54 110l129 407h142l-129 -410c-22 -69.333 -49.333 -126.833 -82 -172.5s-73.667 -76.167 -123 -91.5
c62.667 -16.667 110.334 -50.167 143.001 -100.5s59.334 -110.166 80.001 -179.499l137 -457h-153l-127 440c-13.333 48 -29.666 86.667 -48.999 116s-40.333 52.166 -63 68.499s-47 27.333 -73 33s-53.333 8.5 -82 8.5h-215v-666h-143v666h-217
c-28.667 0 -56 -2.83301 -82 -8.5s-50.167 -16.667 -72.5 -33s-43.166 -39.166 -62.499 -68.499s-35.666 -68 -48.999 -116l-127 -440h-152z" />
    <glyph glyph-name="uni0417" unicode="&#x417;" horiz-adv-x="1036" 
d="M25 123l78.998 106.005c20.667 -16.667 44 -31.667 70 -45s54 -25.5 84 -36.5s60.667 -19.5 92 -25.5s61.333 -9 90 -9c50.667 0 97.5 6.83301 140.5 20.5s79.833 33 110.5 58s54.5 55.333 71.5 91s25.5 75.834 25.5 120.501c0 86 -24.833 152.667 -74.5 200
s-113.5 71 -191.5 71h-164v123h158c28.667 0 58.667 5.33301 90 16s60.333 27 87 49s48.5 49.667 65.5 83s25.5 72.666 25.5 117.999c0 40.667 -8.5 76 -25.5 106s-39.167 55 -66.5 75s-59 34.333 -95 43s-73.333 13 -112 13c-57.333 0 -116.666 -10.5 -177.999 -31.5
s-111.666 -47.833 -150.999 -80.5l-78 106c58.667 42 120.5 74.333 185.5 97s143.833 34 236.5 34c54.667 0 107.5 -6.83301 158.5 -20.5s96.333 -34.834 136 -63.501s71.5 -65.5 95.5 -110.5s36 -98.833 36 -161.5c0 -35.333 -4.5 -69.833 -13.5 -103.5
s-22.667 -64.834 -41 -93.501s-40.833 -53.834 -67.5 -75.501s-58.334 -38.834 -95.001 -51.501c40.667 -13.333 75 -32.333 103 -57s50.833 -52.334 68.5 -83.001s30.334 -62.667 38.001 -96s11.5 -66.333 11.5 -99c0 -70.667 -13 -132.5 -39 -185.5
s-61.5 -97.167 -106.5 -132.5s-97.167 -61.833 -156.5 -79.5s-122 -26.5 -188 -26.5c-44 0 -86.333 3.66699 -127 11s-78.834 17.5 -114.501 30.5s-68.167 27.667 -97.5 44s-54.666 33.5 -75.999 51.5z" />
    <glyph glyph-name="uni0418" unicode="&#x418;" horiz-adv-x="1288" 
d="M117 0v1411h143v-1159h10l256 393l502 766h141v-1411h-143v1165h-8l-273 -420l-487 -745h-141z" />
    <glyph glyph-name="uni0419" unicode="&#x419;" horiz-adv-x="1288" 
d="M117 0v1411h143v-1159h10l256 393l502 766h141v-1411h-143v1165h-8l-273 -420l-487 -745h-141zM352 1714h114.999c5.33301 -36.667 23 -69 53 -97s67 -42 111 -42c48 0 85.833 13.333 113.5 40s44.5 59.667 50.5 99h112c-4 -26 -11.167 -53.333 -21.5 -82
s-26.333 -55.167 -48 -79.5s-49.167 -44.5 -82.5 -60.5s-74.666 -24 -123.999 -24c-50.667 0 -93.334 8 -128.001 24s-63 36.167 -85 60.5s-38.167 50.833 -48.5 79.5s-16.166 56 -17.499 82z" />
    <glyph glyph-name="uni041A" unicode="&#x41a;" horiz-adv-x="1132" 
d="M117 0l-0.00292969 1411h141v-620h262c23.333 0 47.666 2.66699 72.999 8s49.833 15.5 73.5 30.5s45.834 36.5 66.501 64.5s38.334 64.667 53.001 110l136 407h137l-129 -405c-22 -68 -49.667 -126 -83 -174s-74 -79.667 -122 -95c62.667 -16.667 110 -49.5 142 -98.5
s58.333 -108.167 79 -177.5l139 -461h-149l-133 440c-13.333 46.667 -29.666 84.667 -48.999 114s-40.666 52.166 -63.999 68.499s-47.833 27.666 -73.5 33.999s-52.167 9.5 -79.5 9.5h-279v-666h-141z" />
    <glyph glyph-name="uni041B" unicode="&#x41b;" horiz-adv-x="1241" 
d="M-2 76c45.333 27.333 84.6689 58.667 118.002 94s61.666 80.333 84.999 135s40.666 122 51.999 202s17 178 17 294v610h852v-1411h-145v1280h-563v-508c0 -122.667 -7.83301 -229.167 -23.5 -319.5s-38.167 -167.5 -67.5 -231.5s-66 -117.5 -110 -160.5
s-94 -78.833 -150 -107.5z" />
    <glyph glyph-name="uni041C" unicode="&#x41c;" horiz-adv-x="1484" 
d="M115 0v1411h139l491 -1014h9l481 1014h133v-1411h-143v1071h-6l-414 -854h-113l-418 840h-8l-8 -1057h-143z" />
    <glyph glyph-name="uni041D" unicode="&#x41d;" horiz-adv-x="1243" 
d="M111 0v1411h143v-629h729v629h150v-1411h-150v651h-729v-651h-143z" />
    <glyph glyph-name="uni041E" unicode="&#x41e;" horiz-adv-x="1228" 
d="M106 459l0.000976562 493.001c0 69.333 12 133.166 36 191.499s58.167 108.333 102.5 150s98 74 161 97s132.5 34.5 208.5 34.5c75.333 0 144.333 -11.5 207 -34.5s116.667 -55.333 162 -97s80.166 -91.5 104.499 -149.5s36.5 -122 36.5 -192v-495
c0 -72.667 -12.5 -138 -37.5 -196s-60.167 -107.5 -105.5 -148.5s-99.333 -72.333 -162 -94s-131 -32.5 -205 -32.5c-76.667 0 -146 11.167 -208 33.5s-115.167 54 -159.5 95s-78.833 90.5 -103.5 148.5s-37 123.333 -37 196zM250.001 475.001
c0 -64 10.1709 -118.499 30.5039 -163.499s47.666 -81.833 81.999 -110.5s73.333 -49.834 117 -63.501s88.5 -20.5 134.5 -20.5c49.333 0 96.166 6.83301 140.499 20.5s83 35.167 116 64.5s59.333 66.5 79 111.5s29.5 98.833 29.5 161.5v457
c0 62.667 -9.83301 116.5 -29.5 161.5s-46.334 82.167 -80.001 111.5s-72.334 51.166 -116.001 65.499s-90.167 21.5 -139.5 21.5c-50.667 0 -98 -7.16699 -142 -21.5s-82.5 -36.166 -115.5 -65.499s-59 -66.5 -78 -111.5s-28.5 -98.833 -28.5 -161.5v-457z" />
    <glyph glyph-name="uni041F" unicode="&#x41f;" horiz-adv-x="1236" 
d="M109 0v1411h1019v-1411h-147v1280h-729v-1280h-143z" />
    <glyph glyph-name="uni0420" unicode="&#x420;" horiz-adv-x="1120" 
d="M111 0v1411h571c66.667 0 125 -12.333 175 -37s91.333 -56.334 124 -95.001s56.834 -83 72.501 -133s23.5 -99.667 23.5 -149s-8.83301 -98.5 -26.5 -147.5s-43.5 -93 -77.5 -132s-75.333 -70.667 -124 -95s-104.334 -36.5 -167.001 -36.5h-428v-586h-143zM254 721.001
l399.001 -0.000976562c38 0 74.167 6.5 108.5 19.5s64.166 31 89.499 54s45.166 51.5 59.499 85.5s21.5 73 21.5 117c0 42 -7.16699 80.5 -21.5 115.5s-34.166 64.833 -59.499 89.5s-55 43.834 -89 57.501s-70.333 20.5 -109 20.5h-399v-559z" />
    <glyph glyph-name="uni0421" unicode="&#x421;" horiz-adv-x="1054" 
d="M109 453l-0.000976562 510.002c0 69.333 12.833 132.333 38.5 189s61.167 105.5 106.5 146.5s98.333 72.333 159 94s126.334 32.5 197.001 32.5c150 0 277 -38.667 381 -116l-73 -113c-40.667 31.333 -88.167 55.166 -142.5 71.499s-109.5 24.5 -165.5 24.5
c-45.333 0 -89 -6.83301 -131 -20.5s-80.167 -34.834 -114.5 -63.501s-61.666 -65.834 -81.999 -111.501s-30.5 -100.5 -30.5 -164.5v-451c0 -64 10.5 -118.833 31.5 -164.5s48.333 -83.167 82 -112.5s71.667 -51.166 114 -65.499s84.5 -21.5 126.5 -21.5
c57.333 0 113.333 7.83301 168 23.5s104 41.167 148 76.5l71 -111c-39.333 -31.333 -92.5 -59.166 -159.5 -83.499s-141.5 -36.5 -223.5 -36.5c-72.667 0 -139.334 10.833 -200.001 32.5s-113.5 53 -158.5 94s-80 90.167 -105 147.5s-37.5 121.666 -37.5 192.999z" />
    <glyph glyph-name="uni0422" unicode="&#x422;" horiz-adv-x="1060" 
d="M33 1278v133h993v-133h-422v-1278h-145v1278h-426z" />
    <glyph glyph-name="uni0423" unicode="&#x423;" horiz-adv-x="1030" 
d="M23 1411h148.998l162 -438l176 -486h8l191 506l157 418h146l-430 -1112c-23.333 -62.667 -46.666 -114.5 -69.999 -155.5s-47.666 -73.5 -72.999 -97.5s-52.333 -40.667 -81 -50s-60 -14 -94 -14h-114v137h88c35.333 0 67 8.5 95 25.5s53.667 51.5 77 103.5l28 71z" />
    <glyph glyph-name="uni0424" unicode="&#x424;" horiz-adv-x="1533" 
d="M117 643l-0.00195312 201c0 68 12.667 132.667 38 194s62.5 116 111.5 164s109.333 86.333 181 115s153.834 44.334 246.501 47.001v61h144v-61c92.667 -2.66699 175.167 -18.334 247.5 -47.001s133 -66.5 182 -113.5s86.167 -101.667 111.5 -164s38 -127.5 38 -195.5
v-199c0 -69.333 -12.667 -135.5 -38 -198.5s-62.5 -118.667 -111.5 -167s-109.333 -86.833 -181 -115.5s-154.5 -44.334 -248.5 -47.001v-117h-144v117c-94 2.66699 -176.833 18.334 -248.5 47.001s-131.667 66.5 -180 113.5s-85.166 102 -110.499 165
s-38 129.833 -38 200.5zM259.998 649c0 -61.333 10.998 -116.502 32.998 -165.502s52.333 -91 91 -126s84.334 -61.667 137.001 -80s110.334 -28.166 173.001 -29.499v983c-132.667 -2.66699 -238.167 -40.167 -316.5 -112.5s-117.5 -170.166 -117.5 -293.499v-176z
M837.996 247.998c62.667 1.33301 120.667 11.165 174 29.498s99 45 137 80s68 77 90 126s33 104.167 33 165.5v176c0 122.667 -39.333 220.334 -118 293.001s-184 110.334 -316 113.001v-983z" />
    <glyph glyph-name="uni0425" unicode="&#x425;" horiz-adv-x="1077" 
d="M20 0l437 723l-408 688h168l322 -565l321 565h166l-408 -688l439 -723h-168l-350 602l-351 -602h-168z" />
    <glyph glyph-name="uni0426" unicode="&#x426;" horiz-adv-x="1277" 
d="M111 0v1411h143v-1282h729v1282h150v-1278l110 -2v-434h-143v303h-989z" />
    <glyph glyph-name="uni0427" unicode="&#x427;" horiz-adv-x="1161" 
d="M61 993l-0.000976562 420.002h146v-395c0 -58.667 5.16699 -109.834 15.5 -153.501s27 -79.834 50 -108.501s54 -50.167 93 -64.5s86.5 -21.5 142.5 -21.5c66.667 0 135.834 12.167 207.501 36.5s132.167 54.5 181.5 90.5v616h145v-1411h-145v647
c-60 -38 -126.167 -66.5 -198.5 -85.5s-137.833 -28.5 -196.5 -28.5c-154 0 -266 38.833 -336 116.5s-105 191.5 -105 341.5z" />
    <glyph glyph-name="uni0428" unicode="&#x428;" horiz-adv-x="1810" 
d="M113 0v1411h143v-1282h578v1282h141v-1282h579v1282h144v-1411h-1585z" />
    <glyph glyph-name="uni0429" unicode="&#x429;" horiz-adv-x="1841" 
d="M113 0v1411h143v-1282h578v1282h141v-1282h577v1282h146v-1278l110 -2v-434h-141v303h-1554z" />
    <glyph glyph-name="uni042A" unicode="&#x42a;" horiz-adv-x="1470" 
d="M12 1278l-0.000976562 132.999h566v-612h417c65.333 0 123.333 -11.667 174 -35s93.167 -53.833 127.5 -91.5s60.333 -80 78 -127s26.5 -95.167 26.5 -144.5c0 -56 -9.16699 -108.5 -27.5 -157.5s-45 -91.667 -80 -128s-78.167 -64.666 -129.5 -84.999
s-109.666 -30.5 -174.999 -30.5h-555v1278h-422zM577.999 130.999h391c82 0 150.5 22.5 205.5 67.5s82.5 112.5 82.5 202.5c0 82 -26.5 146.667 -79.5 194s-123.833 71 -212.5 71h-387v-535z" />
    <glyph glyph-name="uni042B" unicode="&#x42b;" horiz-adv-x="1507" 
d="M121 0l-0.00195312 1411h141v-612h420c65.333 0 123 -11.667 173 -35s92.333 -53.833 127 -91.5s60.834 -80 78.501 -127s26.5 -95.167 26.5 -144.5c0 -56 -9.16699 -108.5 -27.5 -157.5s-44.833 -91.667 -79.5 -128s-77.667 -64.666 -129 -84.999
s-109.666 -30.5 -174.999 -30.5h-555zM261.998 130.999l392.999 0.00195312c40.667 0 78.5 5.83301 113.5 17.5s65.167 28.667 90.5 51s45.5 50.166 60.5 83.499s22.5 72.666 22.5 117.999c0 82 -26.667 146.667 -80 194s-123.666 71 -210.999 71h-389v-535z
M1241 0.000976562v1411h143v-1411h-143z" />
    <glyph glyph-name="uni042C" unicode="&#x42c;" horiz-adv-x="1138" 
d="M121 0l-0.00195312 1411h141v-612h420c65.333 0 123 -11.667 173 -35s92.333 -53.833 127 -91.5s60.834 -80 78.501 -127s26.5 -95.167 26.5 -144.5c0 -56 -9.16699 -108.5 -27.5 -157.5s-44.833 -91.667 -79.5 -128s-77.667 -64.666 -129 -84.999
s-109.666 -30.5 -174.999 -30.5h-555zM261.998 130.999l392.999 0.00195312c40.667 0 78.5 5.83301 113.5 17.5s65.167 28.667 90.5 51s45.5 50.166 60.5 83.499s22.5 72.666 22.5 117.999c0 82 -26.667 146.667 -80 194s-123.666 71 -210.999 71h-389v-535z" />
    <glyph glyph-name="uni042D" unicode="&#x42d;" horiz-adv-x="1048" 
d="M43 106l72.0029 110.999c45.333 -34 95.166 -58.833 149.499 -74.5s110.166 -23.5 167.499 -23.5c48 0 93.5 7.16699 136.5 21.5s80.833 36.5 113.5 66.5s58.5 67.833 77.5 113.5s28.5 100.5 28.5 164.5v181h-555v129h555v137c0 128.667 -30.667 220.834 -92 276.501
s-142.333 83.5 -243 83.5c-56 0 -111 -8.5 -165 -25.5s-101.667 -41.167 -143 -72.5l-71 113c54.667 40.667 113.667 70.5 177 89.5s132 28.5 206 28.5c157.333 0 276.166 -39.167 356.499 -117.5s120.5 -193.166 120.5 -344.499v-506
c0 -70.667 -12.667 -135.167 -38 -193.5s-60.5 -108 -105.5 -149s-98.5 -72.667 -160.5 -95s-130 -33.5 -204 -33.5c-82 0 -156.167 12.167 -222.5 36.5s-119.833 52.166 -160.5 83.499z" />
    <glyph glyph-name="uni042E" unicode="&#x42e;" horiz-adv-x="1529" 
d="M121 0v1411h143v-629h207v170c0 69.333 10.167 133.166 30.5 191.499s50.666 108.333 90.999 150s90.166 74 149.499 97s127.333 34.5 204 34.5c75.333 0 142.333 -11.5 201 -34.5s108.5 -55.333 149.5 -97s72 -91.5 93 -149.5s31.5 -122 31.5 -192v-495
c0 -72.667 -10.833 -138 -32.5 -196s-53 -107.5 -94 -148.5s-90.833 -72.333 -149.5 -94s-125 -32.5 -199 -32.5c-76.667 0 -144.667 11.167 -204 33.5s-109.166 54 -149.499 95s-70.666 90.5 -90.999 148.5s-30.5 123.333 -30.5 196v192h-207v-651h-143zM616 475.001
c0 -64 8.66504 -118.499 25.998 -163.499s40.666 -81.833 69.999 -110.5s64.166 -49.834 104.499 -63.501s83.5 -20.5 129.5 -20.5c100 0 180.333 28.333 241 85s91 147.667 91 273v457c0 62.667 -8.16699 116.5 -24.5 161.5s-39.166 82.167 -68.499 111.5
s-64.166 51.166 -104.499 65.499s-85.166 21.5 -134.499 21.5c-101.333 0 -181.666 -28.667 -240.999 -86s-89 -148.666 -89 -273.999v-457z" />
    <glyph glyph-name="uni042F" unicode="&#x42f;" horiz-adv-x="1200" 
d="M84 0l119 413.997c18 58.667 38.167 107.834 60.5 147.501s57.5 69.5 105.5 89.5c-86 23.333 -148.5 66.666 -187.5 129.999s-58.5 135.333 -58.5 216c0 54.667 8.5 107.334 25.5 158.001s41.833 94.667 74.5 132s74 67.333 124 90s107.667 34 173 34h572v-1411h-146v621
h-338c-26 0 -51.833 -3.5 -77.5 -10.5s-50.167 -18.667 -73.5 -35s-44.5 -39.166 -63.5 -68.499s-35.5 -66.666 -49.5 -111.999l-115 -395h-145zM260 996.997c0 -45.333 7.5 -83.8311 22.5 -115.498s35.833 -57.834 62.5 -78.501s58.167 -35.834 94.5 -45.501
s74.833 -14.5 115.5 -14.5h391v537h-401c-86 0 -155 -24.667 -207 -74s-78 -119 -78 -209z" />
    <glyph glyph-name="uni0430" unicode="&#x430;" horiz-adv-x="985" 
d="M72 285c0 54.667 11.834 100.669 35.501 138.002s53.334 67.666 89.001 90.999s74 40.166 115 50.499s79.167 15.5 114.5 15.5h330v90c0 79.333 -21.5 137.333 -64.5 174s-106.833 55 -191.5 55c-42 0 -88.333 -5.83301 -139 -17.5s-102 -37.167 -154 -76.5l-68 102
c61.333 45.333 123.166 75.833 185.499 91.5s124.166 23.5 185.499 23.5c135.333 0 232.333 -30 291 -90s88 -146 88 -258v-674h-115l-18 109l-4 2c-88.667 -52 -161 -85.167 -217 -99.5s-104 -21.5 -144 -21.5c-95.333 0 -172.333 25.5 -231 76.5s-88 123.833 -88 218.5z
M211.001 285.002c0 -60 19.835 -104 59.502 -132s88.167 -42 145.5 -42c27.333 0 56 4 86 12s60 18.167 90 30.5s59 26 87 41s53.667 29.5 77 43.5v229h-299c-24.667 0 -51.334 -1.66699 -80.001 -5s-55.334 -11.5 -80.001 -24.5s-45.167 -31.5 -61.5 -55.5
s-24.5 -56.333 -24.5 -97z" />
    <glyph glyph-name="uni0431" unicode="&#x431;" horiz-adv-x="1009" 
d="M96 369v268.002c0 106.667 7.83301 207.667 23.5 303s50.834 182 105.501 260c24.667 35.333 53.334 65.333 86.001 90s67.5 46.167 104.5 64.5s75 34.666 114 48.999l115.5 44.5l84 32.5c27.333 11 58.666 24.833 93.999 41.5l47 -113
c-58.667 -30 -107.334 -52.5 -146.001 -67.5l-114 -45.5l-90 -35.5c-28.667 -11.667 -56 -25.667 -82 -42s-50.167 -35.833 -72.5 -58.5s-42.5 -50.334 -60.5 -83.001c-19.333 -35.333 -34.333 -73.833 -45 -115.5s-17.334 -81.5 -20.001 -119.5
c18 23.333 38.833 43.166 62.5 59.499s48.834 29.5 75.501 39.5s53 17.5 79 22.5s49 7.5 69 7.5c124 0 219.5 -32.167 286.5 -96.5s100.5 -154.5 100.5 -270.5v-242c0 -57.333 -10.167 -109.166 -30.5 -155.499s-49 -85.5 -86 -117.5s-80.667 -56.5 -131 -73.5
s-104.833 -25.5 -163.5 -25.5c-132.667 0 -233.5 33.333 -302.5 100s-103.5 159.667 -103.5 279zM231 383.002c0 -49.333 6.83203 -91.002 20.499 -125.002s32.834 -62 57.501 -84s53.667 -37.667 87 -47s70 -14 110 -14c38 0 73.833 5 107.5 15s62.667 25.667 87 47
s43.666 49 57.999 83s21.5 75.667 21.5 125v192c0 98 -25.5 167.667 -76.5 209s-116.833 62 -197.5 62c-32.667 0 -65.167 -5.5 -97.5 -16.5s-61.666 -28.167 -87.999 -51.5s-47.833 -52.666 -64.5 -87.999s-25 -77.666 -25 -126.999v-180z" />
    <glyph glyph-name="uni0432" unicode="&#x432;" horiz-adv-x="968" 
d="M94 0l0.000976562 1010h471c53.333 0 99.166 -7.5 137.499 -22.5s69.833 -34.833 94.5 -59.5s43 -53.334 55 -86.001s18 -67 18 -103c0 -38 -9.83301 -76.5 -29.5 -115.5s-55.5 -70.167 -107.5 -93.5c28.667 -12 52.667 -26.833 72 -44.5s35 -37.5 47 -59.5
s20.833 -44.167 26.5 -66.5s8.5 -43.833 8.5 -64.5c0 -36.667 -6.5 -72.834 -19.5 -108.501s-32.5 -67.5 -58.5 -95.5s-58.5 -50.167 -97.5 -66.5s-84.5 -24.5 -136.5 -24.5h-481zM229.001 119.002h322c62.667 0 111.834 15 147.501 45s53.5 73.667 53.5 131
c0 26 -5.5 49.5 -16.5 70.5s-25 39 -42 54s-36.833 26.667 -59.5 35s-46.334 12.5 -71.001 12.5h-334v-348zM229.001 590.002l326 0.00195312c49.333 0 91.333 12.167 126 36.5s52 61.166 52 110.499c0 27.333 -5.5 50.666 -16.5 69.999s-25 35 -42 47
s-36.667 20.833 -59 26.5s-45.833 8.5 -70.5 8.5h-316v-299z" />
    <glyph glyph-name="uni0433" unicode="&#x433;" horiz-adv-x="811" 
d="M96 0v1012h713v-123h-576v-889h-137z" />
    <glyph glyph-name="uni0434" unicode="&#x434;" horiz-adv-x="1132" 
d="M25 113l36.499 0.000976562c12.333 0 24.5 0.666992 36.5 2c24.667 18 45.834 39.167 63.501 63.5s32.667 54.666 45 90.999s22.333 79.333 30 129s13.5 108.5 17.5 176.5c2.66699 74 6 146.5 10 217.5l12 217.5h705v-893c13.333 0 26.5 -0.333008 39.5 -1
s26.5 -1 40.5 -1v-369h-125v254h-784v-254h-127v367zM273.999 117.001h574v774h-455l-14 -318c-5.33301 -110.667 -15.5 -202.5 -30.5 -275.5s-39.833 -133.167 -74.5 -180.5z" />
    <glyph glyph-name="uni0435" unicode="&#x435;" horiz-adv-x="972" 
d="M98 358l-0.000976562 274.999c0 58.667 10 112.167 30 160.5s47.667 89.333 83 123s77.666 59.667 126.999 78s103.333 27.5 162 27.5s112.167 -8.83301 160.5 -26.5s90 -43.334 125 -77.001s62 -73.667 81 -120s28.5 -98.166 28.5 -155.499v-190h-662v-80
c0 -48 8 -88.667 24 -122s36.833 -60.666 62.5 -81.999s55.334 -36.666 89.001 -45.999s68.834 -14 105.501 -14c44 0 88.833 8.16699 134.5 24.5s88.167 42.833 127.5 79.5l84 -92c-48 -48 -102 -81.833 -162 -101.5s-122.667 -29.5 -188 -29.5
c-57.333 0 -111 7.5 -161 22.5s-93.333 37.833 -130 68.5s-66 69.167 -88 115.5s-33 100.166 -33 161.499zM232.999 564.999l526.998 0.000976562v62c0 49.333 -7.16699 91 -21.5 125s-33.833 61.833 -58.5 83.5s-52.667 37.667 -84 48s-63.333 15.5 -96 15.5
c-34 0 -67.167 -5.5 -99.5 -16.5s-60.666 -27.333 -84.999 -49s-44.166 -49.334 -59.499 -83.001s-23 -73.5 -23 -119.5v-66z" />
    <glyph glyph-name="uni0436" unicode="&#x436;" horiz-adv-x="1409" 
d="M49 0l97.9951 329.997c15.333 50.667 34 94 56 130s56.667 59.333 104 70c-39.333 10.667 -70 32.834 -92 66.501s-40.333 75.167 -55 124.5l-92 291h135l94 -297c9.33301 -31.333 21.166 -56.666 35.499 -75.999s30.166 -34 47.499 -44s35.5 -16.5 54.5 -19.5
s38.167 -4.5 57.5 -4.5h145v441h133v-441h145c19.333 0 38.5 1.5 57.5 4.5s37.167 9.5 54.5 19.5s32.833 24.667 46.5 44s25.834 44.666 36.501 75.999l94 297h137l-92 -291c-15.333 -49.333 -33.833 -90.666 -55.5 -123.999s-52.167 -55.666 -91.5 -66.999
c48 -10.667 82.833 -34 104.5 -70s40.167 -79.333 55.5 -130l98 -330h-141l-86 299c-9.33301 32.667 -20.666 59.334 -33.999 80.001s-28.166 36.334 -44.499 47.001s-34.666 17.834 -54.999 21.501s-42.166 5.5 -65.499 5.5h-164v-453h-133v453h-164
c-23.333 0 -45.166 -1.83301 -65.499 -5.5s-38.666 -10.834 -54.999 -21.501s-31 -26.334 -44 -47.001s-24.5 -47.334 -34.5 -80.001l-86 -299h-139z" />
    <glyph glyph-name="uni0437" unicode="&#x437;" horiz-adv-x="856" 
d="M27 106l82.002 95c35.333 -28.667 76.833 -51.167 124.5 -67.5s94.834 -24.5 141.501 -24.5c82 0 145.167 18 189.5 54s66.5 78.667 66.5 128c0 57.333 -19.833 100.333 -59.5 129s-86.834 43 -141.501 43h-139v112h141c49.333 0 93.166 14.5 131.499 43.5
s57.5 69.167 57.5 120.5c0 27.333 -6.5 51 -19.5 71s-29.833 36.5 -50.5 49.5s-44.334 22.5 -71.001 28.5s-53 9 -79 9c-44 0 -88.333 -6.83301 -133 -20.5s-84 -34.167 -118 -61.5c-2.66699 2.66699 -8.16699 8.5 -16.5 17.5l-27 29l-26.5 29.5
c-8 9.33301 -12.667 15.333 -14 18c50.667 40.667 105.5 69.667 164.5 87s119.5 26 181.5 26c106.667 0 190 -25.667 250 -77s90 -116.333 90 -195c0 -18 -2.5 -38 -7.5 -60s-12.833 -43.167 -23.5 -63.5s-26 -39.333 -46 -57s-45 -32.167 -75 -43.5
c32.667 -12 59.667 -27.833 81 -47.5s37.833 -40.167 49.5 -61.5s19.834 -43 24.501 -65s7 -41 7 -57c0 -90 -33.833 -163 -101.5 -219s-160.834 -84 -279.501 -84c-142 0 -260 38 -354 114z" />
    <glyph glyph-name="uni0438" unicode="&#x438;" horiz-adv-x="1021" 
d="M102 0v1010h136v-799h6l44.5 66.5l60.5 88l60.5 88.5l45.5 66l336 490h127v-1010h-136v797h-8l-45 -67l-59.5 -89l-60 -89l-46.5 -67c-9.33301 -12 -22.833 -31 -40.5 -57l-58.5 -86l-68 -99.5l-68.5 -99.5l-59 -86l-39.5 -57h-127z" />
    <glyph glyph-name="uni0439" unicode="&#x439;" horiz-adv-x="1021" 
d="M102 0v1010h136v-799h6l44.5 66.5l60.5 88l60.5 88.5l45.5 66l336 490h127v-1010h-136v797h-8l-45 -67l-59.5 -89l-60 -89l-46.5 -67c-9.33301 -12 -22.833 -31 -40.5 -57l-58.5 -86l-68 -99.5l-68.5 -99.5l-59 -86l-39.5 -57h-127zM233 1405h115
c5.33301 -36.667 23 -69 53 -97s67 -42 111 -42c48 0 86 13.333 114 40s44.667 59.667 50 99h112c-4 -26 -11 -53.333 -21 -82s-26 -55.334 -48 -80.001s-49.667 -44.834 -83 -60.501s-74.666 -23.5 -123.999 -23.5c-50.667 0 -93.334 7.83301 -128.001 23.5
s-63 35.834 -85 60.501s-38 51.334 -48 80.001s-16 56 -18 82z" />
    <glyph glyph-name="uni043A" unicode="&#x43a;" horiz-adv-x="978" 
d="M117 0l0.00195312 1012h135v-441h219c19.333 0 38.166 1.5 56.499 4.5s36 9.5 53 19.5s32.667 24.667 47 44s27.166 44.666 38.499 75.999l106 297h137l-104 -291c-18 -49.333 -37.167 -90.666 -57.5 -123.999s-50.5 -55.666 -90.5 -66.999
c48 -10.667 82.333 -34 103 -70s39.667 -79.333 57 -130l111 -330h-142l-98 299c-10.667 32.667 -22.5 59 -35.5 79s-27.667 35.667 -44 47s-34.5 18.833 -54.5 22.5s-41.667 5.5 -65 5.5h-237v-453h-135z" />
    <glyph glyph-name="uni043B" unicode="&#x43b;" horiz-adv-x="1015" 
d="M8 76c35.333 19.333 66.333 40.167 93 62.5s49.334 52 68.001 89s32.334 83.833 41.001 140.5s13 128.667 13 216v424h676v-1008h-133v889h-412v-328c0 -94 -6.83301 -173.833 -20.5 -239.5s-33.334 -121 -59.001 -166s-56.334 -81.833 -92.001 -110.5
s-74.5 -54 -116.5 -76z" />
    <glyph glyph-name="uni043C" unicode="&#x43c;" horiz-adv-x="1208" 
d="M104 0l0.00195312 1010h127l222 -412c1.33301 -4 9.83301 -20.333 25.5 -49l50 -94.5l49 -94.5c15 -28.667 23.833 -45 26.5 -49l152 285c9.33301 18 24.666 46 45.999 84l66.5 121.5l66.5 122c21.333 38.333 36.666 67.166 45.999 86.499h121v-1010h-135v723h-6l-29 -54
l-40.5 -75c-14.333 -26 -27.5 -51 -39.5 -75s-21.667 -42.667 -29 -56l-174 -311h-96l-123 221l-184 344h-4v-717h-138z" />
    <glyph glyph-name="uni043D" unicode="&#x43d;" horiz-adv-x="1021" 
d="M104 0v1010h134v-437h544v437h138v-1010h-138v451h-544v-451h-134z" />
    <glyph glyph-name="uni043E" unicode="&#x43e;" horiz-adv-x="1007" 
d="M96 356l0.000976562 298.999c0 57.333 11 108.666 33 153.999s51.333 83.666 88 114.999s80 55.5 130 72.5s103 25.5 159 25.5c58.667 0 112.834 -8.5 162.501 -25.5s92.667 -41.167 129 -72.5s64.666 -69.666 84.999 -114.999s30.5 -96.666 30.5 -153.999v-299
c0 -57.333 -10.167 -108.833 -30.5 -154.5s-49 -84.167 -86 -115.5s-80.333 -55.166 -130 -71.499s-103.834 -24.5 -162.501 -24.5s-113 8.16699 -163 24.5s-93 40.5 -129 72.5s-64.333 70.5 -85 115.5s-31 96.167 -31 153.5zM231.001 384.999
c0 -49.333 7.49902 -91.333 22.499 -126s35.167 -63 60.5 -85s54.833 -37.667 88.5 -47s68.834 -14 105.501 -14c34 0 67 5 99 15s61 25.667 87 47s46.833 49.333 62.5 84s23.5 76.667 23.5 126v242c0 49.333 -8.16699 91 -24.5 125s-37.833 61.833 -64.5 83.5
s-56 37.334 -88 47.001s-63.667 14.5 -95 14.5c-32.667 0 -65.5 -4.83301 -98.5 -14.5s-62.667 -25.334 -89 -47.001s-47.833 -49.667 -64.5 -84s-25 -75.833 -25 -124.5v-242z" />
    <glyph glyph-name="uni043F" unicode="&#x43f;" horiz-adv-x="1009" 
d="M100 0v1010h813v-1010h-135v889h-545v-889h-133z" />
    <glyph glyph-name="uni0440" unicode="&#x440;" horiz-adv-x="1007" 
d="M102 -410v1418h115l19 -119c44 27.333 83.667 49.833 119 67.5s67 31.334 95 41.001s52.833 16.167 74.5 19.5s42.167 5 61.5 5c98 0 177.333 -28.667 238 -86s91 -146.666 91 -267.999v-324c0 -114.667 -31.333 -202.667 -94 -264s-149.334 -92 -260.001 -92
c-39.333 0 -84.666 4 -135.999 12s-114.333 30 -189 66v-476h-134zM236 196.998c69.333 -31.333 127.834 -53.168 175.501 -65.501s93.5 -18.5 137.5 -18.5c70.667 0 126.834 18.667 168.501 56s62.5 100.333 62.5 189v293c0 88.667 -18.333 150.834 -55 186.501
s-86.667 53.5 -150 53.5c-20.667 0 -44.834 -3.5 -72.501 -10.5s-56.5 -16.5 -86.5 -28.5s-60.333 -26.667 -91 -44s-60.334 -35.333 -89.001 -54v-557z" />
    <glyph glyph-name="uni0441" unicode="&#x441;" horiz-adv-x="860" 
d="M98 352l-0.000976562 301c0 56 10.333 106.833 31 152.5s49 84.667 85 117s78 57.333 126 75s99.333 26.5 154 26.5c56 0 113 -7.5 171 -22.5s108.667 -45.167 152 -90.5l-82 -102c-42 36.667 -83.167 60.5 -123.5 71.5s-76.833 16.5 -109.5 16.5
c-31.333 0 -63.166 -4.83301 -95.499 -14.5s-61.333 -25 -87 -46s-46.5 -49 -62.5 -84s-24 -76.833 -24 -125.5v-242c0 -49.333 8 -91 24 -125s36.5 -61.667 61.5 -83s53.667 -37 86 -47s64.833 -15 97.5 -15c31.333 0 69.5 6.16699 114.5 18.5s83.167 32.833 114.5 61.5
l84 -97c-45.333 -39.333 -95.5 -67.166 -150.5 -83.499s-110.5 -24.5 -166.5 -24.5c-60 0 -114.667 8.83301 -164 26.5s-91.333 42.5 -126 74.5s-61.667 70.167 -81 114.5s-29 93.166 -29 146.499z" />
    <glyph glyph-name="uni0442" unicode="&#x442;" horiz-adv-x="843" 
d="M25 889v123h794v-123h-327v-889h-140v889h-327z" />
    <glyph glyph-name="uni0443" unicode="&#x443;" horiz-adv-x="917" 
d="M18 1010h143.998c6.66699 -19.333 16.5 -50.5 29.5 -93.5l40 -135l40 -135c13 -43 22.833 -74.167 29.5 -93.5l133 -430h4l154 430l33.5 93.5l48 135l47 135c15 43 26.167 74.167 33.5 93.5h143c-15.333 -39.333 -36.166 -96.333 -62.499 -171l-91 -250l-106.5 -288.5
l-105.5 -289l-91.5 -250c-27.333 -74.333 -47.666 -131.5 -60.999 -171.5h-146l150 422l-72 66z" />
    <glyph glyph-name="uni0444" unicode="&#x444;" horiz-adv-x="1251" 
d="M96 401l-0.000976562 210.998c0 56 11 109.333 33 160s53.167 95.167 93.5 133.5s89.166 68.666 146.499 90.999s120.666 33.5 189.999 33.5v381h133v-381c72.667 0 137.667 -11.167 195 -33.5s106.166 -52.666 146.499 -90.999s71 -82.833 92 -133.5
s31.5 -104 31.5 -160v-209c0 -56 -11.167 -108.833 -33.5 -158.5s-53.666 -93.667 -93.999 -132s-89.166 -68.666 -146.499 -90.999s-121 -33.5 -191 -33.5v-400h-133v400c-69.333 0 -132.666 11.167 -189.999 33.5s-106.166 52.333 -146.499 90s-71.5 81.334 -93.5 131.001
s-33 102.5 -33 158.5zM228.999 433.998c0 -88.667 27.001 -163.333 81.001 -224s137 -92.334 249 -95.001v790c-57.333 -1.33301 -106.833 -10.5 -148.5 -27.5s-75.834 -39.833 -102.501 -68.5s-46.5 -62.167 -59.5 -100.5s-19.5 -79.166 -19.5 -122.499v-152zM692 114.999
c56 0 104.5 8.5 145.5 25.5s75.167 39.833 102.5 68.5s47.833 62.5 61.5 101.5s20.5 80.167 20.5 123.5v152c0 44 -6.5 85 -19.5 123s-33.167 71.667 -60.5 101s-61.833 52.5 -103.5 69.5s-90.5 25.5 -146.5 25.5v-790z" />
    <glyph glyph-name="uni0445" unicode="&#x445;" horiz-adv-x="856" 
d="M6 0l340 518l-321 494h163l236 -385l238 385h161l-325 -492l340 -520h-164l-252 410l-254 -410h-162z" />
    <glyph glyph-name="uni0446" unicode="&#x446;" horiz-adv-x="1042" 
d="M115 0v1012h129v-893h534v893h129v-895h82v-373h-129v256h-745z" />
    <glyph glyph-name="uni0447" unicode="&#x447;" horiz-adv-x="937" 
d="M57 702l-0.000976562 309.999h133v-289c0 -82 18.167 -141 54.5 -177s88.5 -54 156.5 -54c48 0 99.667 9.83301 155 29.5s109 45.834 161 78.501v412h133v-1012h-133v465c-74 -44 -138.667 -72.5 -194 -85.5s-102.666 -19.5 -141.999 -19.5c-98 0 -176.5 28 -235.5 84
s-88.5 142 -88.5 258z" />
    <glyph glyph-name="uni0448" unicode="&#x448;" horiz-adv-x="1478" 
d="M111 0v1010h133v-889h426v889h135v-889h428v889h133v-1010h-1255z" />
    <glyph glyph-name="uni0449" unicode="&#x449;" horiz-adv-x="1490" 
d="M111 0v1010h137v-891h424v891h133v-891h428v891h133v-893h82v-375h-127v258h-1210z" />
    <glyph glyph-name="uni044A" unicode="&#x44a;" horiz-adv-x="1153" 
d="M14 887v123.003h461v-420h303c57.333 0 106.833 -7.83301 148.5 -23.5s76.5 -36.834 104.5 -63.501s48.5 -57.834 61.5 -93.501s19.5 -73.167 19.5 -112.5c0 -92.667 -30 -165.334 -90 -218.001s-144.667 -79 -254 -79h-426v887h-328zM473 121.003l297.001 -0.000976562
c65.333 0 116.5 14.667 153.5 44s55.5 73.333 55.5 132c0 46.667 -16.333 87.334 -49 122.001s-85.334 52 -158.001 52h-299v-350z" />
    <glyph glyph-name="uni044B" unicode="&#x44b;" horiz-adv-x="1210" 
d="M102 0v1012h134v-422h305c57.333 0 106.833 -7.83301 148.5 -23.5s76.5 -36.834 104.5 -63.501s48.333 -57.834 61 -93.501s19 -73.167 19 -112.5c0 -92.667 -30 -165.334 -90 -218.001s-144.667 -79 -254 -79h-428zM236 121.003l296.002 -0.000976562
c65.333 0 116.166 14.667 152.499 44s54.5 73.333 54.5 132c0 46.667 -16.333 87.334 -49 122.001s-85.334 52 -158.001 52h-296v-350zM979.002 0.00195312v1010h129v-1010h-129z" />
    <glyph glyph-name="uni044C" unicode="&#x44c;" horiz-adv-x="905" 
d="M102 0v1012h134v-422h305c57.333 0 106.833 -7.83301 148.5 -23.5s76.5 -36.834 104.5 -63.501s48.333 -57.834 61 -93.501s19 -73.167 19 -112.5c0 -92.667 -30 -165.334 -90 -218.001s-144.667 -79 -254 -79h-428zM236 121.003l296.002 -0.000976562
c65.333 0 116.166 14.667 152.499 44s54.5 73.333 54.5 132c0 46.667 -16.333 87.334 -49 122.001s-85.334 52 -158.001 52h-296v-350z" />
    <glyph glyph-name="uni044D" unicode="&#x44d;" horiz-adv-x="849" 
d="M37 98l77.999 103.003c40.667 -35.333 82.5 -58.5 125.5 -69.5s80.167 -16.5 111.5 -16.5c32.667 0 65.167 4.66699 97.5 14s61 24.666 86 45.999s45.833 48.666 62.5 81.999s25 74.666 25 123.999v82h-414v119h414v49c0 100 -21.833 169.333 -65.5 208
s-103.834 58 -180.501 58c-16.667 0 -35.167 -1.66699 -55.5 -5s-41.166 -8.16602 -62.499 -14.499s-42.5 -14.833 -63.5 -25.5s-39.833 -23 -56.5 -37l-82 94c46.667 42 100 71.667 160 89s118 26 174 26c124 0 216.5 -33.167 277.5 -99.5s91.5 -151.833 91.5 -256.5v-306
c0 -57.333 -10 -108.833 -30 -154.5s-47.333 -84.5 -82 -116.5s-77 -56.833 -127 -74.5s-104.333 -26.5 -163 -26.5c-56 0 -112.667 7.16699 -170 21.5s-107.666 43.166 -150.999 86.499z" />
    <glyph glyph-name="uni044E" unicode="&#x44e;" horiz-adv-x="1253" 
d="M94 0l-0.000976562 1010h135v-439h158v84c0 57.333 9.5 108.666 28.5 153.999s46 83.666 81 114.999s76 55.5 123 72.5s98.5 25.5 154.5 25.5c118.667 0 212.834 -32.5 282.501 -97.5s104.5 -154.833 104.5 -269.5v-299c0 -116 -35.5 -206 -106.5 -270
s-165.167 -96 -282.5 -96s-210.833 32 -280.5 96s-104.5 154 -104.5 270v95h-158v-451h-135zM519.999 385.002c0 -49.333 6.50098 -91.333 19.501 -126s30.833 -63 53.5 -85s49.667 -37.667 81 -47s65.333 -14 102 -14c34 0 66.5 5 97.5 15s58 25.667 81 47
s41.333 49.333 55 84s20.5 76.667 20.5 126v242c0 49.333 -7.16699 91 -21.5 125s-33.5 61.833 -57.5 83.5s-51.333 37.334 -82 47.001s-61.667 14.5 -93 14.5c-32.667 0 -64.334 -4.83301 -95.001 -14.5s-58 -25.334 -82 -47.001s-43.167 -49.667 -57.5 -84
s-21.5 -75.833 -21.5 -124.5v-242z" />
    <glyph glyph-name="uni044F" unicode="&#x44f;" horiz-adv-x="958" 
d="M59 0l73.9971 287.001c10.667 39.333 25.334 75 44.001 107s47.667 55.667 87 71c-58.667 18 -102.667 49.5 -132 94.5s-44 94.833 -44 149.5c0 40.667 6.83301 79.5 20.5 116.5s33.834 69.5 60.501 97.5s59.5 49.833 98.5 65.5s82.833 23.5 131.5 23.5h463v-1012h-133
v432h-274c-44 0 -82.667 -10.833 -116 -32.5s-57.666 -62.834 -72.999 -123.501l-69 -276h-138zM216.997 711.001c0 -57.333 19.5 -98.667 58.5 -124s85.833 -38 140.5 -38h313v340h-317c-52 0 -97.5 -14.333 -136.5 -43s-58.5 -73.667 -58.5 -135z" />
    <glyph glyph-name="uni0451" unicode="&#x451;" horiz-adv-x="972" 
d="M98 358l-0.000976562 274.999c0 58.667 10 112.167 30 160.5s47.667 89.333 83 123s77.666 59.667 126.999 78s103.333 27.5 162 27.5s112.167 -8.83301 160.5 -26.5s90 -43.334 125 -77.001s62 -73.667 81 -120s28.5 -98.166 28.5 -155.499v-190h-662v-80
c0 -48 8 -88.667 24 -122s36.833 -60.666 62.5 -81.999s55.334 -36.666 89.001 -45.999s68.834 -14 105.501 -14c44 0 88.833 8.16699 134.5 24.5s88.167 42.833 127.5 79.5l84 -92c-48 -48 -102 -81.833 -162 -101.5s-122.667 -29.5 -188 -29.5
c-57.333 0 -111 7.5 -161 22.5s-93.333 37.833 -130 68.5s-66 69.167 -88 115.5s-33 100.166 -33 161.499zM232.999 564.999l526.998 0.000976562v62c0 49.333 -7.16699 91 -21.5 125s-33.833 61.833 -58.5 83.5s-52.667 37.667 -84 48s-63.333 15.5 -96 15.5
c-34 0 -67.167 -5.5 -99.5 -16.5s-60.666 -27.333 -84.999 -49s-44.166 -49.334 -59.499 -83.001s-23 -73.5 -23 -119.5v-66zM232.997 1327c0 23.333 8 43.166 24 59.499s34.667 24.5 56 24.5c23.333 0 43.5 -8.16699 60.5 -24.5s25.5 -36.166 25.5 -59.499
s-8.5 -42.833 -25.5 -58.5s-37.167 -23.5 -60.5 -23.5c-22 0 -40.833 7.83301 -56.5 23.5s-23.5 35.167 -23.5 58.5zM605.997 1327c0 23.333 7.83301 43.166 23.5 59.499s35.167 24.5 58.5 24.5s43.166 -8.16699 59.499 -24.5s24.5 -36.166 24.5 -59.499
s-8.16699 -42.833 -24.5 -58.5s-36.166 -23.5 -59.499 -23.5s-42.833 7.83301 -58.5 23.5s-23.5 35.167 -23.5 58.5z" />
    <glyph glyph-name="uni0452" unicode="&#x452;" horiz-adv-x="1011" 
d="M4 1178l0.00195312 110.001h102v178h136v-178h463v-110h-463v-297c87.333 56 159.666 93.167 216.999 111.5s105.666 27.5 144.999 27.5c106.667 0 186.334 -30 239.001 -90s79 -148 79 -264v-449c0 -61.333 -10.667 -114.833 -32 -160.5s-50.333 -83.834 -87 -114.501
s-80 -53.667 -130 -69s-103.667 -23 -161 -23v125c38 0 73.833 4.5 107.5 13.5s62.667 23.667 87 44s43.666 47.333 57.999 81s21.5 75.167 21.5 124.5v403c0 90 -18 153.5 -54 190.5s-86 55.5 -150 55.5c-45.333 0 -99 -13 -161 -39s-121.667 -57.333 -179 -94v-754h-136
v1178h-102z" />
    <glyph glyph-name="uni0453" unicode="&#x453;" horiz-adv-x="811" 
d="M96 0v1012h713v-123h-576v-889h-137zM348 1174l154 339l135 -45l-205 -327z" />
    <glyph glyph-name="uni0454" unicode="&#x454;" horiz-adv-x="854" 
d="M96 352l-0.00195312 301c0 56 10 106.833 30 152.5s47.333 84.667 82 117s75.834 57.333 123.501 75s99.5 26.5 155.5 26.5s113 -7.5 171 -22.5s109 -45.167 153 -90.5l-80 -102c-44 36.667 -86 60.5 -126 71.5s-76.333 16.5 -109 16.5
c-34 0 -67.167 -4.83301 -99.5 -14.5s-60.833 -25 -85.5 -46s-44.5 -49 -59.5 -84s-22.5 -76.833 -22.5 -125.5v-56h387v-116h-387v-70c0 -49.333 7.16699 -91 21.5 -125s33.833 -61.667 58.5 -83s53.334 -37 86.001 -47s67 -15 103 -15c31.333 0 69.5 6.16699 114.5 18.5
s83.833 32.833 116.5 61.5l82 -97c-44 -39.333 -93.833 -67.166 -149.5 -83.499s-111.5 -24.5 -167.5 -24.5c-62.667 0 -118.667 8.83301 -168 26.5s-91 42.5 -125 74.5s-60 70.167 -78 114.5s-27 93.166 -27 146.499z" />
    <glyph glyph-name="uni0455" unicode="&#x455;" horiz-adv-x="915" 
d="M68 106l70.9971 101.002c50.667 -39.333 103 -67 157 -83s113 -24 177 -24c28.667 0 57.334 3.16699 86.001 9.5s54.667 16.666 78 30.999s42.166 33 56.499 56s21.5 51.833 21.5 86.5c0 44 -14.333 77.5 -43 100.5s-69 40.5 -121 52.5c-48 12 -99 22.5 -153 31.5
s-103.5 22.833 -148.5 41.5s-82.167 44.667 -111.5 78s-44 80 -44 140c0 44 8.83301 84 26.5 120s42.334 67 74.001 93s69.667 46.167 114 60.5s92.5 21.5 144.5 21.5c74 0 138.833 -7.16699 194.5 -21.5s108.834 -39.166 159.501 -74.499l-33.5 -50.5l-34.5 -50.5
c-45.333 27.333 -91.166 47.166 -137.499 59.499s-95.166 18.5 -146.499 18.5c-69.333 0 -125.333 -16.333 -168 -49s-64 -75 -64 -127c0 -24.667 6.16699 -45.5 18.5 -62.5s29.166 -31.333 50.499 -43s46.666 -21.167 75.999 -28.5s61 -14.666 95 -21.999
c42 -8 86 -16.833 132 -26.5s88 -24.667 126 -45s69 -47.833 93 -82.5s36 -80.667 36 -138c0 -44 -9.16699 -83.833 -27.5 -119.5s-44.666 -66.334 -78.999 -92.001s-75 -45.334 -122 -59.001s-99.833 -20.5 -158.5 -20.5c-68 0 -134.833 7.83301 -200.5 23.5
s-130.5 47.167 -194.5 94.5z" />
    <glyph glyph-name="uni0456" unicode="&#x456;" horiz-adv-x="409" 
d="M119 1329c0 24.667 8.5 45.167 25.5 61.5s37.167 24.5 60.5 24.5s43.5 -8.16699 60.5 -24.5s25.5 -36.833 25.5 -61.5c0 -23.333 -8.5 -43.5 -25.5 -60.5s-37.167 -25.5 -60.5 -25.5s-43.5 8.5 -60.5 25.5s-25.5 37.167 -25.5 60.5zM137 0v1012h133v-1012h-133z" />
    <glyph glyph-name="uni0457" unicode="&#x457;" horiz-adv-x="454" 
d="M-39 1319c0 23.333 7.83301 43.166 23.5 59.499s34.5 24.5 56.5 24.5c23.333 0 43.5 -8.16699 60.5 -24.5s25.5 -36.166 25.5 -59.499s-8.5 -42.833 -25.5 -58.5s-37.167 -23.5 -60.5 -23.5c-22 0 -40.833 7.83301 -56.5 23.5s-23.5 35.167 -23.5 58.5zM160 0v1012h133
v-1012h-133zM334 1319c0 23.333 7.83301 43.166 23.5 59.499s35.167 24.5 58.5 24.5s43.166 -8.16699 59.499 -24.5s24.5 -36.166 24.5 -59.499s-8.16699 -42.833 -24.5 -58.5s-36.166 -23.5 -59.499 -23.5s-42.833 7.83301 -58.5 23.5s-23.5 35.167 -23.5 58.5z" />
    <glyph glyph-name="uni0458" unicode="&#x458;" horiz-adv-x="475" 
d="M-29 -301l72 0.000976562c56 0 94.167 12.667 114.5 38s30.5 72.666 30.5 141.999v1131h136v-1151c0 -101.333 -22.333 -173.5 -67 -216.5s-110 -64.5 -196 -64.5h-90v121zM172 1329c0 24.667 8.16699 45.167 24.5 61.5s36.166 24.5 59.499 24.5
s43.5 -8.16699 60.5 -24.5s25.5 -36.833 25.5 -61.5c0 -23.333 -8.5 -43.5 -25.5 -60.5s-37.167 -25.5 -60.5 -25.5s-43.166 8.5 -59.499 25.5s-24.5 37.167 -24.5 60.5z" />
    <glyph glyph-name="uni0459" unicode="&#x459;" horiz-adv-x="1480" 
d="M16 74c35.333 19.333 67.1699 41.5039 95.5029 66.5039s51.666 56.333 69.999 94s32.333 83.5 42 137.5s14.5 119.667 14.5 197v443h557v-422h305c57.333 0 106.833 -7.83301 148.5 -23.5s76.5 -36.834 104.5 -63.501s48.5 -57.834 61.5 -93.501
s19.5 -73.167 19.5 -112.5c0 -92.667 -30.167 -165.334 -90.5 -218.001s-144.833 -79 -253.5 -79h-428v889h-300v-330c0 -87.333 -6.33301 -163 -19 -227s-31.334 -119 -56.001 -165s-54.834 -84.333 -90.501 -115s-76.5 -56.334 -122.5 -77.001zM795.004 121.004
l297 -0.000976562c65.333 0 116 14.667 152 44s54 73.333 54 132c0 46.667 -16.333 87.334 -49 122.001s-85 52 -157 52h-297v-350z" />
    <glyph glyph-name="uni045A" unicode="&#x45a;" horiz-adv-x="1505" 
d="M119 0v1012h133v-424h438v424h133v-422h305c57.333 0 106.833 -7.83301 148.5 -23.5s76.5 -36.834 104.5 -63.501s48.5 -57.834 61.5 -93.501s19.5 -73.167 19.5 -112.5c0 -92.667 -30 -165.334 -90 -218.001s-144 -79 -252 -79h-430v473h-438v-473h-133zM823 121.003
l297.001 -0.000976562c65.333 0 116.5 14.667 153.5 44s55.5 73.333 55.5 132c0 46.667 -16.333 87.334 -49 122.001s-85.334 52 -158.001 52h-299v-350z" />
    <glyph glyph-name="uni045B" unicode="&#x45b;" horiz-adv-x="1011" 
d="M4 1178l0.000976562 110h102v178h136v-178h463v-110h-463v-297c87.333 56 159.666 93.167 216.999 111.5s105.666 27.5 144.999 27.5c106.667 0 186.334 -30 239.001 -90s79 -148 79 -264v-666h-136v641c0 90 -18 153.5 -54 190.5s-86 55.5 -150 55.5
c-45.333 0 -99 -13 -161 -39s-121.667 -57.333 -179 -94v-754h-136v1178h-102z" />
    <glyph glyph-name="uni045C" unicode="&#x45c;" horiz-adv-x="978" 
d="M117 0l0.00195312 1012h135v-441h219c19.333 0 38.166 1.5 56.499 4.5s36 9.5 53 19.5s32.667 24.667 47 44s27.166 44.666 38.499 75.999l106 297h137l-104 -291c-18 -49.333 -37.167 -90.666 -57.5 -123.999s-50.5 -55.666 -90.5 -66.999
c48 -10.667 82.333 -34 103 -70s39.667 -79.333 57 -130l111 -330h-142l-98 299c-10.667 32.667 -22.5 59 -35.5 79s-27.667 35.667 -44 47s-34.5 18.833 -54.5 22.5s-41.667 5.5 -65 5.5h-237v-453h-135zM377.002 1174l153 339l136 -45l-205 -327z" />
    <glyph glyph-name="uni045E" unicode="&#x45e;" horiz-adv-x="917" 
d="M18 1010h143.998c6.66699 -19.333 16.5 -50.5 29.5 -93.5l40 -135l40 -135c13 -43 22.833 -74.167 29.5 -93.5l133 -430h4l154 430l33.5 93.5l48 135l47 135c15 43 26.167 74.167 33.5 93.5h143c-15.333 -39.333 -36.166 -96.333 -62.499 -171l-91 -250l-106.5 -288.5
l-105.5 -289l-91.5 -250c-27.333 -74.333 -47.666 -131.5 -60.999 -171.5h-146l150 422l-72 66zM177.998 1405h115.001c5.33301 -36.667 23 -69 53 -97s67 -42 111 -42c48 0 85.833 13.333 113.5 40s44.5 59.667 50.5 99h112c-4 -26 -11.167 -53.333 -21.5 -82
s-26.333 -55.334 -48 -80.001s-49.334 -44.834 -83.001 -60.501s-74.834 -23.5 -123.501 -23.5c-50.667 0 -93.5 7.83301 -128.5 23.5s-63.333 35.834 -85 60.501s-37.667 51.334 -48 80.001s-16.166 56 -17.499 82z" />
    <glyph glyph-name="uni045F" unicode="&#x45f;" horiz-adv-x="1013" 
d="M100 0v1010h133v-891h547v891h135v-1010h-340v-295h-137v295h-338z" />
    <glyph glyph-name="uni0490" unicode="&#x490;" horiz-adv-x="1056" 
d="M125 0v1411h780v231h137v-362h-776v-1280h-141z" />
    <glyph glyph-name="uni0491" unicode="&#x491;" horiz-adv-x="821" 
d="M94 0v1012h592v196h127v-319h-584v-889h-135z" />
    <glyph glyph-name="uni04D9" unicode="&#x4d9;" horiz-adv-x="972" 
d="M92 362l-0.000976562 195h662v82c0 48 -6.83301 88.667 -20.5 122s-32.5 60.166 -56.5 80.499s-51.667 35.333 -83 45s-64.666 14.5 -99.999 14.5c-45.333 0 -92.5 -8.16699 -141.5 -24.5s-93.5 -42.833 -133.5 -79.5l-82 92c53.333 50.667 109.333 85.5 168 104.5
s122.334 28.5 191.001 28.5c57.333 0 110.166 -7.83301 158.499 -23.5s89.833 -38.834 124.5 -69.501s62 -69 82 -115s30 -99.667 30 -161v-276c0 -58.667 -10 -112 -30 -160s-47.667 -88.667 -83 -122s-77.5 -59.166 -126.5 -77.499s-103.167 -27.5 -162.5 -27.5
c-58.667 0 -112.167 8.5 -160.5 25.5s-89.833 41.833 -124.5 74.5s-62 71.834 -82 117.501s-30 97.167 -30 154.5zM228.999 383c0 -49.333 7.16699 -91 21.5 -125s33.5 -62 57.5 -84s51.667 -38 83 -48s64 -15 98 -15c32.667 0 65.167 5.33301 97.5 16s60.833 27 85.5 49
s44.5 50 59.5 84s22.5 74.333 22.5 121v63h-525v-61z" />
    <glyph glyph-name="uni2000" unicode="&#x2000;" horiz-adv-x="902" 
 />
    <glyph glyph-name="uni2001" unicode="&#x2001;" horiz-adv-x="1804" 
 />
    <glyph glyph-name="uni2002" unicode="&#x2002;" horiz-adv-x="902" 
 />
    <glyph glyph-name="uni2003" unicode="&#x2003;" horiz-adv-x="1804" 
 />
    <glyph glyph-name="uni2004" unicode="&#x2004;" horiz-adv-x="601" 
 />
    <glyph glyph-name="uni2005" unicode="&#x2005;" horiz-adv-x="451" 
 />
    <glyph glyph-name="uni2006" unicode="&#x2006;" horiz-adv-x="300" 
 />
    <glyph glyph-name="uni2007" unicode="&#x2007;" horiz-adv-x="300" 
 />
    <glyph glyph-name="uni2008" unicode="&#x2008;" horiz-adv-x="225" 
 />
    <glyph glyph-name="uni2009" unicode="&#x2009;" horiz-adv-x="360" 
 />
    <glyph glyph-name="uni200A" unicode="&#x200a;" horiz-adv-x="100" 
 />
    <glyph glyph-name="uni2010" unicode="&#x2010;" horiz-adv-x="780" 
d="M106 485v123h568v-123h-568z" />
    <glyph glyph-name="uni2011" unicode="&#x2011;" horiz-adv-x="780" 
d="M106 485v123h568v-123h-568z" />
    <glyph glyph-name="figuredash" unicode="&#x2012;" horiz-adv-x="780" 
d="M106 485v123h568v-123h-568z" />
    <glyph glyph-name="endash" unicode="&#x2013;" horiz-adv-x="1017" 
d="M41 483v125h936v-125h-936z" />
    <glyph glyph-name="emdash" unicode="&#x2014;" horiz-adv-x="2041" 
d="M41 483v125h1960v-125h-1960z" />
    <glyph glyph-name="quoteleft" unicode="&#x2018;" horiz-adv-x="528" 
d="M156 1190c0 30 4.99805 59.667 14.998 89s23.333 56.333 40 81s35.834 46.5 57.501 65.5s44.167 33.833 67.5 44.5l47 -59c-28.667 -22 -51.167 -46 -67.5 -72s-25.833 -56.667 -28.5 -92h2c24.667 0 45.5 -9.5 62.5 -28.5s25.5 -42.167 25.5 -69.5
c0 -26 -9.66699 -48.833 -29 -68.5s-44.666 -29.5 -75.999 -29.5c-39.333 0 -68.5 14.333 -87.5 43s-28.5 60.667 -28.5 96z" />
    <glyph glyph-name="quoteright" unicode="&#x2019;" horiz-adv-x="528" 
d="M162 1114c28.667 22 51.168 46.002 67.501 72.002s25.833 56.667 28.5 92c-27.333 0 -48.833 9.16699 -64.5 27.5s-23.5 41.166 -23.5 68.499s9.16699 51 27.5 71s43.166 30 74.499 30c39.333 0 68.666 -14.833 87.999 -44.5s29 -62.167 29 -97.5
c0 -30 -5.16699 -59.333 -15.5 -88s-23.666 -55.334 -39.999 -80.001s-35.333 -46.5 -57 -65.5s-44.167 -34.5 -67.5 -46.5z" />
    <glyph glyph-name="quotesinglbase" unicode="&#x201a;" horiz-adv-x="460" 
d="M119 -176c30 22 53.166 45.832 69.499 71.499s25.833 56.5 28.5 92.5c-31.333 1.33301 -54.166 10.5 -68.499 27.5s-21.5 41.167 -21.5 72.5c0 26 9.5 48.5 28.5 67.5s44.167 28.5 75.5 28.5c39.333 0 68.333 -14 87 -42s28 -59.667 28 -95
c0 -31.333 -4.83301 -61.666 -14.5 -90.999s-22.667 -56.333 -39 -81s-35.333 -46.5 -57 -65.5s-44.167 -34.167 -67.5 -45.5z" />
    <glyph glyph-name="quotedblleft" unicode="&#x201c;" horiz-adv-x="755" 
d="M129 1190c0 30 4.83008 59.667 14.4971 89s22.667 56.333 39 81s35.333 46.5 57 65.5s44.834 33.833 69.501 44.5l47 -59c-28.667 -22 -51.167 -46 -67.5 -72s-25.833 -56.667 -28.5 -92h2c24.667 0 45.167 -9.5 61.5 -28.5s24.5 -42.167 24.5 -69.5
c0 -26 -9.16699 -48.833 -27.5 -68.5s-43.166 -29.5 -74.499 -29.5c-39.333 0 -68.666 14.333 -87.999 43s-29 60.667 -29 96zM409.997 1190c0 30 4.66797 59.667 14.001 89s22.166 56.333 38.499 81s35.5 46.5 57.5 65.5s45.333 33.833 70 44.5l47 -59
c-28.667 -22 -51.167 -46 -67.5 -72s-25.833 -56.667 -28.5 -92h2c24.667 0 45.167 -9.5 61.5 -28.5s24.5 -42.167 24.5 -69.5c0 -26 -9.33301 -48.833 -28 -68.5s-43.667 -29.5 -75 -29.5c-39.333 0 -68.5 14.333 -87.5 43s-28.5 60.667 -28.5 96z" />
    <glyph glyph-name="quotedblright" unicode="&#x201d;" horiz-adv-x="755" 
d="M135 1114c27.333 22 49.499 46.002 66.499 72.002s26.833 56.667 29.5 92c-27.333 0 -49.166 9.16699 -65.499 27.5s-24.5 41.166 -24.5 68.499s9.66699 51 29 71s44.666 30 75.999 30c39.333 0 68.5 -14.833 87.5 -44.5s28.5 -62.167 28.5 -97.5
c0 -30 -4.66699 -59.333 -14 -88s-22.166 -55.334 -38.499 -80.001s-35.5 -46.5 -57.5 -65.5s-45.333 -34.5 -70 -46.5zM415.999 1114c28.667 22 51.168 46.002 67.501 72.002s25.833 56.667 28.5 92c-27.333 0 -48.833 9.16699 -64.5 27.5s-23.5 41.166 -23.5 68.499
s9.16699 51 27.5 71s43.166 30 74.499 30c39.333 0 68.666 -14.833 87.999 -44.5s29 -62.167 29 -97.5c0 -30 -5.16699 -59.333 -15.5 -88s-23.666 -55.334 -39.999 -80.001s-35.333 -46.5 -57 -65.5s-44.167 -34.5 -67.5 -46.5z" />
    <glyph glyph-name="quotedblbase" unicode="&#x201e;" horiz-adv-x="782" 
d="M121 -176c28.667 22 51.499 45.832 68.499 71.499s26.833 56.5 29.5 92.5c-31.333 1.33301 -54.166 10.5 -68.499 27.5s-21.5 41.167 -21.5 72.5c0 26 9.5 48.5 28.5 67.5s44.167 28.5 75.5 28.5c39.333 0 68.333 -14 87 -42s28 -59.667 28 -95
c0 -31.333 -4.83301 -61.666 -14.5 -90.999s-22.667 -56.333 -39 -81s-35.333 -46.5 -57 -65.5s-44.167 -34.167 -67.5 -45.5zM445.999 -176.001c28.667 22 51.3311 45.832 67.998 71.499s26.334 56.5 29.001 92.5c-31.333 1.33301 -54.166 10.5 -68.499 27.5
s-21.5 41.167 -21.5 72.5c0 26 9.5 48.5 28.5 67.5s44.167 28.5 75.5 28.5c39.333 0 68.666 -14 87.999 -42s29 -59.667 29 -95c0 -31.333 -5.16699 -61.666 -15.5 -90.999s-23.666 -56.333 -39.999 -81s-35.5 -46.5 -57.5 -65.5s-44.333 -34.167 -67 -45.5z" />
    <glyph glyph-name="ellipsis" unicode="&#x2026;" horiz-adv-x="1452" 
d="M125 94c0 23.333 8.5 45.166 25.5 65.499s41.167 30.5 72.5 30.5s56.666 -10.167 75.999 -30.5s29 -42.166 29 -65.499c0 -28.667 -9.66699 -53.167 -29 -73.5s-44.666 -30.5 -75.999 -30.5s-55.5 9.5 -72.5 28.5s-25.5 44.167 -25.5 75.5zM621 94
c0 23.333 8.83301 45.166 26.5 65.499s42.167 30.5 73.5 30.5s56.5 -10.167 75.5 -30.5s28.5 -42.166 28.5 -65.499c0 -28.667 -9.5 -53.167 -28.5 -73.5s-44.167 -30.5 -75.5 -30.5s-55.833 9.5 -73.5 28.5s-26.5 44.167 -26.5 75.5zM1126 94c0 23.333 9 45.166 27 65.499
s42.667 30.5 74 30.5s56.5 -10.167 75.5 -30.5s28.5 -42.166 28.5 -65.499c0 -28.667 -9.16699 -53.167 -27.5 -73.5s-43.833 -30.5 -76.5 -30.5c-31.333 0 -56 9.5 -74 28.5s-27 44.167 -27 75.5z" />
    <glyph glyph-name="uni202F" unicode="&#x202f;" horiz-adv-x="360" 
 />
    <glyph glyph-name="guilsinglleft" unicode="&#x2039;" horiz-adv-x="589" 
d="M111 463l251 366h125l-241 -366l241 -369h-127z" />
    <glyph glyph-name="guilsinglright" unicode="&#x203a;" horiz-adv-x="589" 
d="M111 94l241 369l-241 366h125l251 -366l-249 -369h-127z" />
    <glyph glyph-name="uni205F" unicode="&#x205f;" horiz-adv-x="451" 
 />
    <glyph glyph-name="Euro" unicode="&#x20ac;" 
d="M66 555l-0.000976562 102h806v-102h-561v-74c0 -64 9.66699 -118.5 29 -163.5s45.333 -82.5 78 -112.5s70.167 -51.833 112.5 -65.5s86.833 -20.5 133.5 -20.5c48 0 95.833 5.5 143.5 16.5s91.834 28.5 132.501 52.5l64 -112c-40.667 -26 -89.5 -47.5 -146.5 -64.5
s-120.167 -25.5 -189.5 -25.5c-78 0 -148 11.167 -210 33.5s-114.5 54.333 -157.5 96s-76.167 91.5 -99.5 149.5s-35 122.667 -35 194v96h-100zM65.999 770l0.000976562 102.001h100v84c0 69.333 12.333 132.833 37 190.5s59.167 107.334 103.5 149.001
s97.166 73.667 158.499 96s129 33.5 203 33.5c65.333 0 125.333 -6.5 180 -19.5s105.667 -34.5 153 -64.5l-67 -116c-39.333 22 -82 38.667 -128 50s-92 17 -138 17c-48 0 -93.5 -6.83301 -136.5 -20.5s-80.833 -34.834 -113.5 -63.501s-58.667 -65.834 -78 -111.501
s-29 -100.5 -29 -164.5v-60h561v-102h-806z" />
    <glyph glyph-name="trademark" unicode="&#x2122;" horiz-adv-x="1708" 
d="M78 1329v96h610v-96h-256v-735h-98v735h-256zM782 594l-0.00195312 828.999h103c6.66699 -12 17.5 -32.667 32.5 -62l52 -102.5l62.5 -123l61.5 -123l52 -104.5c15.667 -30.667 27.167 -52 34.5 -64h6l287 579h98v-829h-96v629h-5
c-5.33301 -9.33301 -14.166 -27.166 -26.499 -53.499s-27 -55.833 -44 -88.5l-53 -105l-53 -107.5l-46 -90.5l-28.5 -55h-74c-9.33301 15.333 -25.666 45.833 -48.999 91.5l-76 147l-78 151.5l-53 104h-6l-4 -623h-97z" />
    <glyph glyph-name="uni25FC" unicode="&#x25fc;" horiz-adv-x="1013" 
d="M0 0v1014h1014v-1014h-1014z" />
    <glyph glyph-name="glyph1" horiz-adv-x="0" 
 />
    <glyph glyph-name="glyph2" horiz-adv-x="682" 
 />
    </font>
</defs>
</svg>
