<?xml version="1.0" encoding="utf-8"?>
<!-- Generator: Adobe Illustrator 16.0.0, SVG Export Plug-In . SVG Version: 6.00 Build 0)  -->
<!DOCTYPE svg PUBLIC "-//W3C//DTD SVG 1.1//EN" "http://www.w3.org/Graphics/SVG/1.1/DTD/svg11.dtd">
<svg version="1.1" id="Слой_1" xmlns="http://www.w3.org/2000/svg" xmlns:xlink="http://www.w3.org/1999/xlink" x="0px" y="0px"
	 width="22px" height="22px" viewBox="0 0 22 22" enable-background="new 0 0 22 22" xml:space="preserve">
<path d="M1.375,2.75h19.25C21.385,2.75,22,3.366,22,4.125l0,0C22,4.884,21.385,5.5,20.625,5.5H1.375C0.616,5.5,0,4.884,0,4.125l0,0
	C0,3.366,0.616,2.75,1.375,2.75z"/>
<path d="M1.375,9.625h19.25C21.385,9.625,22,10.241,22,11l0,0c0,0.76-0.615,1.375-1.375,1.375H1.375C0.616,12.375,0,11.76,0,11l0,0
	C0,10.241,0.616,9.625,1.375,9.625z"/>
<path d="M1.375,16.5h19.25c0.76,0,1.375,0.615,1.375,1.375l0,0c0,0.76-0.615,1.375-1.375,1.375H1.375C0.616,19.25,0,18.635,0,17.875
	l0,0C0,17.115,0.616,16.5,1.375,16.5z"/>
</svg>
