<svg enable-background="new 0 0 40 40" height="40px" id="heeg_1" version="1.0" viewBox="0 0 40 40" width="40px" x="0px" xml:space="preserve" xmlns="http://www.w3.org/2000/svg" xmlns:xlink="http://www.w3.org/1999/xlink" y="0px">
<g>
	<g>
		<path d="M30.849,35.024c0,0.854,0.306,1.578,0.907,2.179c0.6,0.605,1.329,0.907,2.182,0.907
			c0.852,0,1.578-0.302,2.181-0.907c0.601-0.601,0.901-1.324,0.901-2.179c0-0.852-0.301-1.58-0.901-2.182
			c-0.603-0.603-1.329-0.905-2.181-0.905c-0.853,0-1.582,0.303-2.182,0.905C31.154,33.444,30.849,34.173,30.849,35.024z" fill="#FFFFFF"></path>
		<path d="M39.649,7.715c-0.303-0.306-0.666-0.459-1.086-0.459H9.615c-0.014-0.11-0.05-0.315-0.107-0.614
			c-0.057-0.295-0.1-0.534-0.135-0.711C9.345,5.753,9.281,5.541,9.196,5.295C9.107,5.043,9.004,4.848,8.883,4.702
			C8.762,4.561,8.602,4.436,8.4,4.33C8.197,4.226,7.97,4.173,7.714,4.173H1.543c-0.417,0-0.779,0.153-1.084,0.458
			C0.153,4.937,0,5.299,0,5.715c0,0.419,0.153,0.779,0.459,1.083c0.305,0.305,0.667,0.458,1.084,0.458H6.46l4.264,19.838
			c-0.028,0.063-0.195,0.37-0.494,0.916c-0.294,0.548-0.533,1.024-0.71,1.432c-0.175,0.412-0.264,0.729-0.264,0.953
			c0,0.42,0.153,0.78,0.459,1.087c0.306,0.302,0.665,0.455,1.084,0.455h1.542h21.597h1.543c0.413,0,0.776-0.153,1.082-0.455
			c0.307-0.307,0.457-0.667,0.457-1.087c0-0.416-0.15-0.778-0.457-1.083c-0.306-0.306-0.669-0.459-1.082-0.459H13.304
			c0.387-0.771,0.579-1.287,0.579-1.543c0-0.16-0.021-0.338-0.061-0.529c-0.039-0.19-0.089-0.406-0.146-0.639
			c-0.053-0.233-0.093-0.406-0.106-0.519l25.164-2.939c0.401-0.049,0.731-0.219,0.986-0.519c0.257-0.298,0.385-0.639,0.385-1.026
			V8.799C40.105,8.383,39.956,8.021,39.649,7.715z" fill="#FFFFFF"></path>
		<path d="M9.253,35.024c0,0.854,0.301,1.578,0.905,2.179c0.605,0.605,1.33,0.907,2.182,0.907
			c0.853,0,1.578-0.302,2.182-0.907c0.6-0.601,0.902-1.324,0.902-2.179c0-0.852-0.302-1.58-0.902-2.182
			c-0.604-0.603-1.329-0.905-2.182-0.905c-0.849,0-1.577,0.303-2.182,0.905C9.558,33.444,9.253,34.173,9.253,35.024z" fill="#FFFFFF"></path>
	</g>
</g>
</svg>